{
    "asset" : {
        "generator" : "Khronos glTF Blender I/O v1.4.40",
        "version" : "2.0"
    },
    "scene" : 0,
    "scenes" : [
        {
            "name" : "Scene",
            "nodes" : [
                0,
                1,
                2
            ]
        }
    ],
    "nodes" : [
        {
            "mesh" : 0,
            "name" : "rings"
        },
        {
            "mesh" : 1,
            "name" : "bars"
        },
        {
            "mesh" : 2,
            "name" : "plates"
        }
    ],
    "materials" : [
        {
            "name" : "Material.003",
            "pbrMetallicRoughness" : {
                "baseColorFactor" : [
                    0.6480000019073486,
                    0.7300000190734863,
                    0.800000011920929,
                    1
                ],
                "metallicFactor" : 0.7820000052452087,
                "roughnessFactor" : 0.43799999356269836
            }
        }
    ],
    "meshes" : [
        {
            "name" : "Cylinder",
            "primitives" : [
                {
                    "attributes" : {
                        "POSITION" : 0,
                        "NORMAL" : 1,
                        "TANGENT" : 2,
                        "TEXCOORD_0" : 3
                    },
                    "indices" : 4,
                    "material" : 0
                }
            ]
        },
        {
            "name" : "Cylinder.001",
            "primitives" : [
                {
                    "attributes" : {
                        "POSITION" : 5,
                        "NORMAL" : 6,
                        "TANGENT" : 7,
                        "TEXCOORD_0" : 8
                    },
                    "indices" : 9,
                    "material" : 0
                }
            ]
        },
        {
            "name" : "Cylinder.003",
            "primitives" : [
                {
                    "attributes" : {
                        "POSITION" : 10,
                        "NORMAL" : 11,
                        "TANGENT" : 12,
                        "TEXCOORD_0" : 13
                    },
                    "indices" : 14,
                    "material" : 0
                }
            ]
        }
    ],
    "accessors" : [
        {
            "bufferView" : 0,
            "componentType" : 5126,
            "count" : 6745,
            "max" : [
                1,
                1.3759896755218506,
                6.100000381469727
            ],
            "min" : [
                -1,
                -1.000000238418579,
                -6.099999904632568
            ],
            "type" : "VEC3"
        },
        {
            "bufferView" : 1,
            "componentType" : 5126,
            "count" : 6745,
            "type" : "VEC3"
        },
        {
            "bufferView" : 2,
            "componentType" : 5126,
            "count" : 6745,
            "type" : "VEC4"
        },
        {
            "bufferView" : 3,
            "componentType" : 5126,
            "count" : 6745,
            "type" : "VEC2"
        },
        {
            "bufferView" : 4,
            "componentType" : 5123,
            "count" : 21972,
            "type" : "SCALAR"
        },
        {
            "bufferView" : 5,
            "componentType" : 5126,
            "count" : 5200,
            "max" : [
                2.8785791397094727,
                2.245976209640503,
                7.973573684692383
            ],
            "min" : [
                -1.6709010601043701,
                -1.3741916418075562,
                -7.946531295776367
            ],
            "type" : "VEC3"
        },
        {
            "bufferView" : 6,
            "componentType" : 5126,
            "count" : 5200,
            "type" : "VEC3"
        },
        {
            "bufferView" : 7,
            "componentType" : 5126,
            "count" : 5200,
            "type" : "VEC4"
        },
        {
            "bufferView" : 8,
            "componentType" : 5126,
            "count" : 5200,
            "type" : "VEC2"
        },
        {
            "bufferView" : 9,
            "componentType" : 5123,
            "count" : 17952,
            "type" : "SCALAR"
        },
        {
            "bufferView" : 10,
            "componentType" : 5126,
            "count" : 7508,
            "max" : [
                1.357287883758545,
                1.1822912693023682,
                5.970520496368408
            ],
            "min" : [
                -1.3702830076217651,
                -1.17042076587677,
                -5.98048210144043
            ],
            "type" : "VEC3"
        },
        {
            "bufferView" : 11,
            "componentType" : 5126,
            "count" : 7508,
            "type" : "VEC3"
        },
        {
            "bufferView" : 12,
            "componentType" : 5126,
            "count" : 7508,
            "type" : "VEC4"
        },
        {
            "bufferView" : 13,
            "componentType" : 5126,
            "count" : 7508,
            "type" : "VEC2"
        },
        {
            "bufferView" : 14,
            "componentType" : 5123,
            "count" : 30672,
            "type" : "SCALAR"
        }
    ],
    "bufferViews" : [
        {
            "buffer" : 0,
            "byteLength" : 80940,
            "byteOffset" : 0
        },
        {
            "buffer" : 0,
            "byteLength" : 80940,
            "byteOffset" : 80940
        },
        {
            "buffer" : 0,
            "byteLength" : 107920,
            "byteOffset" : 161880
        },
        {
            "buffer" : 0,
            "byteLength" : 53960,
            "byteOffset" : 269800
        },
        {
            "buffer" : 0,
            "byteLength" : 43944,
            "byteOffset" : 323760
        },
        {
            "buffer" : 0,
            "byteLength" : 62400,
            "byteOffset" : 367704
        },
        {
            "buffer" : 0,
            "byteLength" : 62400,
            "byteOffset" : 430104
        },
        {
            "buffer" : 0,
            "byteLength" : 83200,
            "byteOffset" : 492504
        },
        {
            "buffer" : 0,
            "byteLength" : 41600,
            "byteOffset" : 575704
        },
        {
            "buffer" : 0,
            "byteLength" : 35904,
            "byteOffset" : 617304
        },
        {
            "buffer" : 0,
            "byteLength" : 90096,
            "byteOffset" : 653208
        },
        {
            "buffer" : 0,
            "byteLength" : 90096,
            "byteOffset" : 743304
        },
        {
            "buffer" : 0,
            "byteLength" : 120128,
            "byteOffset" : 833400
        },
        {
            "buffer" : 0,
            "byteLength" : 60064,
            "byteOffset" : 953528
        },
        {
            "buffer" : 0,
            "byteLength" : 61344,
            "byteOffset" : 1013592
        }
    ],
    "buffers" : [
        {
            "byteLength" : 1074936,
            "uri" : "data:application/octet-stream;base64,"
        }
    ]
}
