{
    "asset" : {
        "generator" : "Khronos glTF Blender I/O v1.6.16",
        "version" : "2.0"
    },
    "scene" : 0,
    "scenes" : [
        {
            "extras" : {
                "glTF2ExportSettings" : {
                    "export_extras" : 1,
                    "export_format" : "GLTF_EMBEDDED",
                    "export_tangents" : 1,
                    "use_selection" : 1
                }
            },
            "name" : "Scene",
            "nodes" : [
                0,
                1,
                2
            ]
        }
    ],
    "nodes" : [
        {
            "mesh" : 0,
            "name" : "level_coll",
            "translation" : [
                0,
                9.277982711791992,
                0
            ]
        },
        {
            "mesh" : 1,
            "name" : "wall_inface",
            "translation" : [
                0,
                9.277982711791992,
                0
            ]
        },
        {
            "mesh" : 2,
            "name" : "main_floor_outface",
            "translation" : [
                0,
                9.277982711791992,
                0
            ]
        }
    ],
    "materials" : [
        {
            "name" : "Material.001",
            "pbrMetallicRoughness" : {
                "baseColorFactor" : [
                    0.800000011920929,
                    0.800000011920929,
                    0.800000011920929,
                    1
                ],
                "metallicFactor" : 0,
                "roughnessFactor" : 0.5
            }
        }
    ],
    "meshes" : [
        {
            "name" : "Cube.002",
            "primitives" : [
                {
                    "attributes" : {
                        "POSITION" : 0,
                        "NORMAL" : 1,
                        "TANGENT" : 2,
                        "TEXCOORD_0" : 3
                    },
                    "indices" : 4,
                    "material" : 0
                }
            ]
        },
        {
            "name" : "Cube.001",
            "primitives" : [
                {
                    "attributes" : {
                        "POSITION" : 5,
                        "NORMAL" : 6,
                        "TANGENT" : 7,
                        "TEXCOORD_0" : 8
                    },
                    "indices" : 9,
                    "material" : 0
                }
            ]
        },
        {
            "name" : "Cube.003",
            "primitives" : [
                {
                    "attributes" : {
                        "POSITION" : 10,
                        "NORMAL" : 11,
                        "TANGENT" : 12,
                        "TEXCOORD_0" : 13
                    },
                    "indices" : 14,
                    "material" : 0
                }
            ]
        }
    ],
    "accessors" : [
        {
            "bufferView" : 0,
            "componentType" : 5126,
            "count" : 321,
            "max" : [
                250,
                2.722017288208008,
                250
            ],
            "min" : [
                -250,
                -32.277984619140625,
                -250
            ],
            "type" : "VEC3"
        },
        {
            "bufferView" : 1,
            "componentType" : 5126,
            "count" : 321,
            "type" : "VEC3"
        },
        {
            "bufferView" : 2,
            "componentType" : 5126,
            "count" : 321,
            "type" : "VEC4"
        },
        {
            "bufferView" : 3,
            "componentType" : 5126,
            "count" : 321,
            "type" : "VEC2"
        },
        {
            "bufferView" : 4,
            "componentType" : 5123,
            "count" : 666,
            "type" : "SCALAR"
        },
        {
            "bufferView" : 5,
            "componentType" : 5126,
            "count" : 259,
            "max" : [
                46,
                2.722017288208008,
                6.061699867248535
            ],
            "min" : [
                -99,
                -32.277984619140625,
                -161
            ],
            "type" : "VEC3"
        },
        {
            "bufferView" : 6,
            "componentType" : 5126,
            "count" : 259,
            "type" : "VEC3"
        },
        {
            "bufferView" : 7,
            "componentType" : 5126,
            "count" : 259,
            "type" : "VEC4"
        },
        {
            "bufferView" : 8,
            "componentType" : 5126,
            "count" : 259,
            "type" : "VEC2"
        },
        {
            "bufferView" : 9,
            "componentType" : 5123,
            "count" : 528,
            "type" : "SCALAR"
        },
        {
            "bufferView" : 10,
            "componentType" : 5126,
            "count" : 57,
            "max" : [
                250,
                2.722017288208008,
                250
            ],
            "min" : [
                -250,
                2.722017288208008,
                -250
            ],
            "type" : "VEC3"
        },
        {
            "bufferView" : 11,
            "componentType" : 5126,
            "count" : 57,
            "type" : "VEC3"
        },
        {
            "bufferView" : 12,
            "componentType" : 5126,
            "count" : 57,
            "type" : "VEC4"
        },
        {
            "bufferView" : 13,
            "componentType" : 5126,
            "count" : 57,
            "type" : "VEC2"
        },
        {
            "bufferView" : 14,
            "componentType" : 5123,
            "count" : 138,
            "type" : "SCALAR"
        }
    ],
    "bufferViews" : [
        {
            "buffer" : 0,
            "byteLength" : 3852,
            "byteOffset" : 0
        },
        {
            "buffer" : 0,
            "byteLength" : 3852,
            "byteOffset" : 3852
        },
        {
            "buffer" : 0,
            "byteLength" : 5136,
            "byteOffset" : 7704
        },
        {
            "buffer" : 0,
            "byteLength" : 2568,
            "byteOffset" : 12840
        },
        {
            "buffer" : 0,
            "byteLength" : 1332,
            "byteOffset" : 15408
        },
        {
            "buffer" : 0,
            "byteLength" : 3108,
            "byteOffset" : 16740
        },
        {
            "buffer" : 0,
            "byteLength" : 3108,
            "byteOffset" : 19848
        },
        {
            "buffer" : 0,
            "byteLength" : 4144,
            "byteOffset" : 22956
        },
        {
            "buffer" : 0,
            "byteLength" : 2072,
            "byteOffset" : 27100
        },
        {
            "buffer" : 0,
            "byteLength" : 1056,
            "byteOffset" : 29172
        },
        {
            "buffer" : 0,
            "byteLength" : 684,
            "byteOffset" : 30228
        },
        {
            "buffer" : 0,
            "byteLength" : 684,
            "byteOffset" : 30912
        },
        {
            "buffer" : 0,
            "byteLength" : 912,
            "byteOffset" : 31596
        },
        {
            "buffer" : 0,
            "byteLength" : 456,
            "byteOffset" : 32508
        },
        {
            "buffer" : 0,
            "byteLength" : 276,
            "byteOffset" : 32964
        }
    ],
    "buffers" : [
        {
            "byteLength" : 33240,
            "uri" : "data:application/octet-stream;base64,"
        }
    ]
}
