{
    "asset" : {
        "generator" : "Khronos glTF Blender I/O v1.6.16",
        "version" : "2.0"
    },
    "scene" : 0,
    "scenes" : [
        {
            "name" : "Scene",
            "nodes" : [
                2
            ]
        }
    ],
    "nodes" : [
        {
            "name" : "cam_attach",
            "rotation" : [
                0.7071066498756409,
                7.486782870840984e-23,
                -2.2312351676347804e-30,
                0.70710688829422
            ],
            "translation" : [
                6.845069885253906,
                11.245400428771973,
                0.19119632244110107
            ]
        },
        {
            "name" : "Vert",
            "skin" : 0
        },
        {
            "children" : [
                1,
                0
            ],
            "name" : "Armature",
            "rotation" : [
                -0.7071068286895752,
                0,
                0,
                0.7071068286895752
            ]
        }
    ],
    "animations" : [
        {
            "channels" : [
                {
                    "sampler" : 0,
                    "target" : {
                        "node" : 0,
                        "path" : "translation"
                    }
                },
                {
                    "sampler" : 1,
                    "target" : {
                        "node" : 0,
                        "path" : "rotation"
                    }
                },
                {
                    "sampler" : 2,
                    "target" : {
                        "node" : 0,
                        "path" : "scale"
                    }
                }
            ],
            "name" : "cam_motion",
            "samplers" : [
                {
                    "input" : 1,
                    "interpolation" : "LINEAR",
                    "output" : 2
                },
                {
                    "input" : 1,
                    "interpolation" : "LINEAR",
                    "output" : 3
                },
                {
                    "input" : 1,
                    "interpolation" : "LINEAR",
                    "output" : 4
                }
            ]
        }
    ],
    "skins" : [
        {
            "inverseBindMatrices" : 0,
            "joints" : [
                0
            ],
            "name" : "Armature"
        }
    ],
    "accessors" : [
        {
            "bufferView" : 0,
            "componentType" : 5126,
            "count" : 1,
            "type" : "MAT4"
        },
        {
            "bufferView" : 1,
            "componentType" : 5126,
            "count" : 504,
            "max" : [
                21
            ],
            "min" : [
                0.041666666666666664
            ],
            "type" : "SCALAR"
        },
        {
            "bufferView" : 2,
            "componentType" : 5126,
            "count" : 504,
            "type" : "VEC3"
        },
        {
            "bufferView" : 3,
            "componentType" : 5126,
            "count" : 504,
            "type" : "VEC4"
        },
        {
            "bufferView" : 4,
            "componentType" : 5126,
            "count" : 504,
            "type" : "VEC3"
        }
    ],
    "bufferViews" : [
        {
            "buffer" : 0,
            "byteLength" : 64,
            "byteOffset" : 0
        },
        {
            "buffer" : 0,
            "byteLength" : 2016,
            "byteOffset" : 64
        },
        {
            "buffer" : 0,
            "byteLength" : 6048,
            "byteOffset" : 2080
        },
        {
            "buffer" : 0,
            "byteLength" : 8064,
            "byteOffset" : 8128
        },
        {
            "buffer" : 0,
            "byteLength" : 6048,
            "byteOffset" : 16192
        }
    ],
    "buffers" : [
        {
            "byteLength" : 22240,
            "uri" : "data:application/octet-stream;base64,"
        }
    ]
}
