{
    "asset" : {
        "generator" : "Khronos glTF Blender I/O v1.4.40",
        "version" : "2.0"
    },
    "scene" : 0,
    "scenes" : [
        {
            "name" : "Scene",
            "nodes" : [
                0,
                1,
                2
            ]
        }
    ],
    "nodes" : [
        {
            "mesh" : 0,
            "name" : "main"
        },
        {
            "mesh" : 1,
            "name" : "details01"
        },
        {
            "mesh" : 2,
            "name" : "details02"
        }
    ],
    "materials" : [
        {
            "name" : "Material.001",
            "normalTexture" : {
                "index" : 0,
                "texCoord" : 0
            },
            "pbrMetallicRoughness" : {
                "baseColorFactor" : [
                    0.6480000019073486,
                    0.7300000190734863,
                    0.800000011920929,
                    1
                ],
                "baseColorTexture" : {
                    "index" : 1,
                    "texCoord" : 0
                },
                "metallicFactor" : 0.7820000052452087,
                "roughnessFactor" : 0.43799999356269836
            }
        }
    ],
    "meshes" : [
        {
            "name" : "Sphere",
            "primitives" : [
                {
                    "attributes" : {
                        "POSITION" : 0,
                        "NORMAL" : 1,
                        "TANGENT" : 2,
                        "TEXCOORD_0" : 3
                    },
                    "indices" : 4,
                    "material" : 0
                }
            ]
        },
        {
            "name" : "Sphere.001",
            "primitives" : [
                {
                    "attributes" : {
                        "POSITION" : 5,
                        "NORMAL" : 6,
                        "TEXCOORD_0" : 7
                    },
                    "indices" : 8,
                    "material" : 0
                }
            ]
        },
        {
            "name" : "Sphere.002",
            "primitives" : [
                {
                    "attributes" : {
                        "POSITION" : 9,
                        "NORMAL" : 10,
                        "TEXCOORD_0" : 11
                    },
                    "indices" : 12,
                    "material" : 0
                }
            ]
        }
    ],
    "textures" : [
        {
            "sampler" : 0,
            "source" : 0
        },
        {
            "sampler" : 0,
            "source" : 1
        }
    ],
    "images" : [
        {
            "bufferView" : 5,
            "mimeType" : "image/png",
            "name" : "PortalGenerator_2K_Normal"
        },
        {
            "bufferView" : 6,
            "mimeType" : "image/png",
            "name" : "PortalGenerator_1K_AO"
        }
    ],
    "accessors" : [
        {
            "bufferView" : 0,
            "componentType" : 5126,
            "count" : 936,
            "max" : [
                1.0587910413742065,
                1.059999942779541,
                1.058791160583496
            ],
            "min" : [
                -1.0587905645370483,
                0.0009111254476010799,
                -1.058790922164917
            ],
            "type" : "VEC3"
        },
        {
            "bufferView" : 1,
            "componentType" : 5126,
            "count" : 936,
            "type" : "VEC3"
        },
        {
            "bufferView" : 2,
            "componentType" : 5126,
            "count" : 936,
            "type" : "VEC4"
        },
        {
            "bufferView" : 3,
            "componentType" : 5126,
            "count" : 936,
            "type" : "VEC2"
        },
        {
            "bufferView" : 4,
            "componentType" : 5123,
            "count" : 4224,
            "type" : "SCALAR"
        },
        {
            "bufferView" : 7,
            "componentType" : 5126,
            "count" : 3806,
            "max" : [
                1.1770989894866943,
                1.1516015529632568,
                1.1745762825012207
            ],
            "min" : [
                -1.1770985126495361,
                0.015086861327290535,
                -1.1770988702774048
            ],
            "type" : "VEC3"
        },
        {
            "bufferView" : 8,
            "componentType" : 5126,
            "count" : 3806,
            "type" : "VEC3"
        },
        {
            "bufferView" : 9,
            "componentType" : 5126,
            "count" : 3806,
            "type" : "VEC2"
        },
        {
            "bufferView" : 10,
            "componentType" : 5123,
            "count" : 15324,
            "type" : "SCALAR"
        },
        {
            "bufferView" : 11,
            "componentType" : 5126,
            "count" : 3103,
            "max" : [
                1.098023533821106,
                1.0795879364013672,
                1.1114368438720703
            ],
            "min" : [
                -1.101051926612854,
                0.08477354049682617,
                -1.1111476421356201
            ],
            "type" : "VEC3"
        },
        {
            "bufferView" : 12,
            "componentType" : 5126,
            "count" : 3103,
            "type" : "VEC3"
        },
        {
            "bufferView" : 13,
            "componentType" : 5126,
            "count" : 3103,
            "type" : "VEC2"
        },
        {
            "bufferView" : 14,
            "componentType" : 5123,
            "count" : 10245,
            "type" : "SCALAR"
        }
    ],
    "bufferViews" : [
        {
            "buffer" : 0,
            "byteLength" : 11232,
            "byteOffset" : 0
        },
        {
            "buffer" : 0,
            "byteLength" : 11232,
            "byteOffset" : 11232
        },
        {
            "buffer" : 0,
            "byteLength" : 14976,
            "byteOffset" : 22464
        },
        {
            "buffer" : 0,
            "byteLength" : 7488,
            "byteOffset" : 37440
        },
        {
            "buffer" : 0,
            "byteLength" : 8448,
            "byteOffset" : 44928
        },
        {
            "buffer" : 0,
            "byteLength" : 1766039,
            "byteOffset" : 53376
        },
        {
            "buffer" : 0,
            "byteLength" : 937758,
            "byteOffset" : 1819416
        },
        {
            "buffer" : 0,
            "byteLength" : 45672,
            "byteOffset" : 2757176
        },
        {
            "buffer" : 0,
            "byteLength" : 45672,
            "byteOffset" : 2802848
        },
        {
            "buffer" : 0,
            "byteLength" : 30448,
            "byteOffset" : 2848520
        },
        {
            "buffer" : 0,
            "byteLength" : 30648,
            "byteOffset" : 2878968
        },
        {
            "buffer" : 0,
            "byteLength" : 37236,
            "byteOffset" : 2909616
        },
        {
            "buffer" : 0,
            "byteLength" : 37236,
            "byteOffset" : 2946852
        },
        {
            "buffer" : 0,
            "byteLength" : 24824,
            "byteOffset" : 2984088
        },
        {
            "buffer" : 0,
            "byteLength" : 20490,
            "byteOffset" : 3008912
        }
    ],
    "samplers" : [
        {
            "magFilter" : 9729,
            "minFilter" : 9986
        }
    ],
    "buffers" : [
        {
            "byteLength" : 3029404,
            "uri" : "data:application/octet-stream;base64,"
        }
    ]
}
