{
    "asset" : {
        "generator" : "Khronos glTF Blender I/O v1.4.40",
        "version" : "2.0"
    },
    "scene" : 0,
    "scenes" : [
        {
            "name" : "Scene",
            "nodes" : [
                1,
                2,
                5,
                6,
                7,
                8,
                9,
                10,
                11,
                12,
                13,
                14,
                15,
                16,
                17,
                18,
                19,
                20,
                21,
                22,
                23,
                24,
                25,
                26,
                27,
                28
            ]
        }
    ],
    "nodes" : [
        {
            "mesh" : 0,
            "name" : "corridor_screen",
            "rotation" : [
                0,
                -1,
                0,
                7.549790126404332e-08
            ],
            "translation" : [
                -0.506011962890625,
                0,
                0.0003739167295861989
            ]
        },
        {
            "children" : [
                0
            ],
            "mesh" : 1,
            "name" : "corridor_door_frame"
        },
        {
            "mesh" : 2,
            "name" : "corridor_segment_a"
        },
        {
            "mesh" : 3,
            "name" : "corridor_segment_b_hex_light",
            "translation" : [
                -3.4939727783203125,
                0,
                12.916421890258789
            ]
        },
        {
            "mesh" : 4,
            "name" : "corridor_segment_b_top_light",
            "translation" : [
                -3.4939727783203125,
                0,
                12.916421890258789
            ]
        },
        {
            "children" : [
                3,
                4
            ],
            "mesh" : 5,
            "name" : "corridor_segment_b"
        },
        {
            "mesh" : 6,
            "name" : "corridor_floor"
        },
        {
            "name" : "segment_b_anchor_01_right",
            "translation" : [
                7.9999847412109375,
                0,
                -12.91679573059082
            ]
        },
        {
            "name" : "segment_b_anchor_02_right",
            "translation" : [
                11.999984741210938,
                0,
                -12.91679573059082
            ]
        },
        {
            "name" : "segment_b_anchor_03_right",
            "translation" : [
                15.999984741210938,
                0,
                -12.91679573059082
            ]
        },
        {
            "name" : "segment_b_anchor_04_right",
            "translation" : [
                27.999984741210938,
                0,
                -12.91679573059082
            ]
        },
        {
            "name" : "segment_b_anchor_05_right",
            "translation" : [
                31.999984741210938,
                0,
                -12.91679573059082
            ]
        },
        {
            "name" : "segment_b_anchor_06_right",
            "translation" : [
                35.99998474121094,
                0,
                -12.91679573059082
            ]
        },
        {
            "name" : "segment_a_anchor_01_right",
            "translation" : [
                3.9999847412109375,
                0,
                -12.91679573059082
            ]
        },
        {
            "name" : "segment_a_anchor_02_right",
            "translation" : [
                19.999984741210938,
                0,
                -12.91679573059082
            ]
        },
        {
            "name" : "segment_a_anchor_03_right",
            "translation" : [
                23.999984741210938,
                0,
                -12.91679573059082
            ]
        },
        {
            "name" : "segment_a_anchor_04_right",
            "translation" : [
                39.99998474121094,
                0,
                -12.91679573059082
            ]
        },
        {
            "name" : "segment_b_anchor_01_left",
            "rotation" : [
                0,
                1,
                0,
                -4.371138828673793e-08
            ],
            "translation" : [
                7.9999847412109375,
                0,
                12.91679573059082
            ]
        },
        {
            "name" : "segment_b_anchor_02_left",
            "rotation" : [
                0,
                1,
                0,
                -4.371138828673793e-08
            ],
            "translation" : [
                11.999984741210938,
                0,
                12.91679573059082
            ]
        },
        {
            "name" : "segment_b_anchor_03_left",
            "rotation" : [
                0,
                1,
                0,
                -4.371138828673793e-08
            ],
            "translation" : [
                15.999984741210938,
                0,
                12.91679573059082
            ]
        },
        {
            "name" : "segment_b_anchor_04_left",
            "rotation" : [
                0,
                1,
                0,
                -4.371138828673793e-08
            ],
            "translation" : [
                27.999984741210938,
                0,
                12.91679573059082
            ]
        },
        {
            "name" : "segment_b_anchor_05_left",
            "rotation" : [
                0,
                1,
                0,
                -4.371138828673793e-08
            ],
            "translation" : [
                31.999982833862305,
                0,
                12.91679573059082
            ]
        },
        {
            "name" : "segment_b_anchor_06_left",
            "rotation" : [
                0,
                1,
                0,
                -4.371138828673793e-08
            ],
            "translation" : [
                35.99998474121094,
                0,
                12.91679573059082
            ]
        },
        {
            "name" : "segment_a_anchor_01_left",
            "rotation" : [
                0,
                1,
                0,
                -4.371138828673793e-08
            ],
            "translation" : [
                3.9999847412109375,
                0,
                12.91679573059082
            ]
        },
        {
            "name" : "segment_a_anchor_02_left",
            "rotation" : [
                0,
                1,
                0,
                -4.371138828673793e-08
            ],
            "translation" : [
                19.999984741210938,
                0,
                12.91679573059082
            ]
        },
        {
            "name" : "segment_a_anchor_03_left",
            "rotation" : [
                0,
                1,
                0,
                -4.371138828673793e-08
            ],
            "translation" : [
                23.999984741210938,
                0,
                12.91679573059082
            ]
        },
        {
            "name" : "segment_a_anchor_04_left",
            "rotation" : [
                0,
                1,
                0,
                -4.371138828673793e-08
            ],
            "translation" : [
                39.99998474121094,
                0,
                12.91679573059082
            ]
        },
        {
            "name" : "door_frame_anchor_01",
            "rotation" : [
                0,
                1,
                0,
                -4.371138828673793e-08
            ]
        },
        {
            "name" : "door_frame_anchor_02",
            "translation" : [
                44,
                0,
                0
            ]
        }
    ],
    "materials" : [
        {
            "doubleSided" : true,
            "emissiveFactor" : [
                0.5592880249023438,
                0.8006527423858643,
                0.7777479290962219
            ],
            "name" : "Material.017",
            "pbrMetallicRoughness" : {
                "baseColorFactor" : [
                    0.800000011920929,
                    0.800000011920929,
                    0.800000011920929,
                    1
                ],
                "metallicFactor" : 0,
                "roughnessFactor" : 0.5
            }
        },
        {
            "doubleSided" : true,
            "name" : "Material.001",
            "pbrMetallicRoughness" : {
                "baseColorFactor" : [
                    0.6480000019073486,
                    0.7300000190734863,
                    0.800000011920929,
                    1
                ],
                "metallicFactor" : 0.7820000052452087,
                "roughnessFactor" : 0.5
            }
        },
        {
            "doubleSided" : true,
            "name" : "Material",
            "normalTexture" : {
                "index" : 0,
                "texCoord" : 0
            },
            "pbrMetallicRoughness" : {
                "baseColorFactor" : [
                    0.13204120099544525,
                    0.12226901948451996,
                    0.056809913367033005,
                    1
                ],
                "baseColorTexture" : {
                    "index" : 1,
                    "texCoord" : 0
                },
                "metallicFactor" : 0.5363640785217285,
                "roughnessFactor" : 0.5
            }
        }
    ],
    "meshes" : [
        {
            "name" : "Cylinder.002",
            "primitives" : [
                {
                    "attributes" : {
                        "POSITION" : 0,
                        "NORMAL" : 1,
                        "TEXCOORD_0" : 2
                    },
                    "indices" : 3,
                    "material" : 0
                }
            ]
        },
        {
            "name" : "Cylinder.015",
            "primitives" : [
                {
                    "attributes" : {
                        "POSITION" : 4,
                        "NORMAL" : 5,
                        "TEXCOORD_0" : 6
                    },
                    "indices" : 7,
                    "material" : 1
                }
            ]
        },
        {
            "name" : "Cylinder.016",
            "primitives" : [
                {
                    "attributes" : {
                        "POSITION" : 8,
                        "NORMAL" : 9,
                        "TEXCOORD_0" : 10
                    },
                    "indices" : 11,
                    "material" : 1
                }
            ]
        },
        {
            "name" : "Cylinder.003",
            "primitives" : [
                {
                    "attributes" : {
                        "POSITION" : 12,
                        "NORMAL" : 13,
                        "TEXCOORD_0" : 14
                    },
                    "indices" : 15,
                    "material" : 0
                }
            ]
        },
        {
            "name" : "Cylinder.004",
            "primitives" : [
                {
                    "attributes" : {
                        "POSITION" : 16,
                        "NORMAL" : 17,
                        "TANGENT" : 18,
                        "TEXCOORD_0" : 19
                    },
                    "indices" : 20,
                    "material" : 0
                }
            ]
        },
        {
            "name" : "Cylinder.001",
            "primitives" : [
                {
                    "attributes" : {
                        "POSITION" : 21,
                        "NORMAL" : 22,
                        "TEXCOORD_0" : 23
                    },
                    "indices" : 24,
                    "material" : 1
                }
            ]
        },
        {
            "name" : "Plane",
            "primitives" : [
                {
                    "attributes" : {
                        "POSITION" : 25,
                        "NORMAL" : 26,
                        "TANGENT" : 27,
                        "TEXCOORD_0" : 28
                    },
                    "indices" : 29,
                    "material" : 2
                }
            ]
        }
    ],
    "textures" : [
        {
            "sampler" : 0,
            "source" : 0
        },
        {
            "sampler" : 0,
            "source" : 1
        }
    ],
    "images" : [
        {
            "bufferView" : 30,
            "mimeType" : "image/png",
            "name" : "FloorTileA_2K_Normal"
        },
        {
            "bufferView" : 31,
            "mimeType" : "image/png",
            "name" : "FloorTileA_1K_AO"
        }
    ],
    "accessors" : [
        {
            "bufferView" : 0,
            "componentType" : 5126,
            "count" : 16,
            "max" : [
                4.017702579498291,
                17.601802825927734,
                4.677786827087402
            ],
            "min" : [
                2.6284902095794678,
                15.317704200744629,
                -4.677038669586182
            ],
            "type" : "VEC3"
        },
        {
            "bufferView" : 1,
            "componentType" : 5126,
            "count" : 16,
            "type" : "VEC3"
        },
        {
            "bufferView" : 2,
            "componentType" : 5126,
            "count" : 16,
            "type" : "VEC2"
        },
        {
            "bufferView" : 3,
            "componentType" : 5123,
            "count" : 42,
            "type" : "SCALAR"
        },
        {
            "bufferView" : 4,
            "componentType" : 5126,
            "count" : 1588,
            "max" : [
                2.719267286011018e-06,
                19.99999237060547,
                18.008893966674805
            ],
            "min" : [
                -4.999985694885254,
                -4.1484832763671875e-05,
                -18.00888442993164
            ],
            "type" : "VEC3"
        },
        {
            "bufferView" : 5,
            "componentType" : 5126,
            "count" : 1588,
            "type" : "VEC3"
        },
        {
            "bufferView" : 6,
            "componentType" : 5126,
            "count" : 1588,
            "type" : "VEC2"
        },
        {
            "bufferView" : 7,
            "componentType" : 5123,
            "count" : 6024,
            "type" : "SCALAR"
        },
        {
            "bufferView" : 8,
            "componentType" : 5126,
            "count" : 466,
            "max" : [
                2,
                19.9999942779541,
                12.91679573059082
            ],
            "min" : [
                -2,
                0,
                -1.8124876022338867
            ],
            "type" : "VEC3"
        },
        {
            "bufferView" : 9,
            "componentType" : 5126,
            "count" : 466,
            "type" : "VEC3"
        },
        {
            "bufferView" : 10,
            "componentType" : 5126,
            "count" : 466,
            "type" : "VEC2"
        },
        {
            "bufferView" : 11,
            "componentType" : 5123,
            "count" : 1176,
            "type" : "SCALAR"
        },
        {
            "bufferView" : 12,
            "componentType" : 5126,
            "count" : 22,
            "max" : [
                4.494937419891357,
                2.5384514331817627,
                -13.066422462463379
            ],
            "min" : [
                2.4929707050323486,
                0.7808802127838135,
                -13.066422462463379
            ],
            "type" : "VEC3"
        },
        {
            "bufferView" : 13,
            "componentType" : 5126,
            "count" : 22,
            "type" : "VEC3"
        },
        {
            "bufferView" : 14,
            "componentType" : 5126,
            "count" : 22,
            "type" : "VEC2"
        },
        {
            "bufferView" : 15,
            "componentType" : 5123,
            "count" : 36,
            "type" : "SCALAR"
        },
        {
            "bufferView" : 16,
            "componentType" : 5126,
            "count" : 136,
            "max" : [
                4.809906959533691,
                19.99999237060547,
                -0.6360955238342285
            ],
            "min" : [
                2.1780385971069336,
                19.702943801879883,
                -4.863156318664551
            ],
            "type" : "VEC3"
        },
        {
            "bufferView" : 17,
            "componentType" : 5126,
            "count" : 136,
            "type" : "VEC3"
        },
        {
            "bufferView" : 18,
            "componentType" : 5126,
            "count" : 136,
            "type" : "VEC4"
        },
        {
            "bufferView" : 19,
            "componentType" : 5126,
            "count" : 136,
            "type" : "VEC2"
        },
        {
            "bufferView" : 20,
            "componentType" : 5123,
            "count" : 714,
            "type" : "SCALAR"
        },
        {
            "bufferView" : 21,
            "componentType" : 5126,
            "count" : 1146,
            "max" : [
                2,
                19.9999942779541,
                12.91679573059082
            ],
            "min" : [
                -2,
                0,
                -1.883906364440918
            ],
            "type" : "VEC3"
        },
        {
            "bufferView" : 22,
            "componentType" : 5126,
            "count" : 1146,
            "type" : "VEC3"
        },
        {
            "bufferView" : 23,
            "componentType" : 5126,
            "count" : 1146,
            "type" : "VEC2"
        },
        {
            "bufferView" : 24,
            "componentType" : 5123,
            "count" : 3624,
            "type" : "SCALAR"
        },
        {
            "bufferView" : 25,
            "componentType" : 5126,
            "count" : 4,
            "max" : [
                43.49399185180664,
                0,
                13
            ],
            "min" : [
                0.5060081481933594,
                0,
                -13
            ],
            "type" : "VEC3"
        },
        {
            "bufferView" : 26,
            "componentType" : 5126,
            "count" : 4,
            "type" : "VEC3"
        },
        {
            "bufferView" : 27,
            "componentType" : 5126,
            "count" : 4,
            "type" : "VEC4"
        },
        {
            "bufferView" : 28,
            "componentType" : 5126,
            "count" : 4,
            "type" : "VEC2"
        },
        {
            "bufferView" : 29,
            "componentType" : 5123,
            "count" : 6,
            "type" : "SCALAR"
        }
    ],
    "bufferViews" : [
        {
            "buffer" : 0,
            "byteLength" : 192,
            "byteOffset" : 0
        },
        {
            "buffer" : 0,
            "byteLength" : 192,
            "byteOffset" : 192
        },
        {
            "buffer" : 0,
            "byteLength" : 128,
            "byteOffset" : 384
        },
        {
            "buffer" : 0,
            "byteLength" : 84,
            "byteOffset" : 512
        },
        {
            "buffer" : 0,
            "byteLength" : 19056,
            "byteOffset" : 596
        },
        {
            "buffer" : 0,
            "byteLength" : 19056,
            "byteOffset" : 19652
        },
        {
            "buffer" : 0,
            "byteLength" : 12704,
            "byteOffset" : 38708
        },
        {
            "buffer" : 0,
            "byteLength" : 12048,
            "byteOffset" : 51412
        },
        {
            "buffer" : 0,
            "byteLength" : 5592,
            "byteOffset" : 63460
        },
        {
            "buffer" : 0,
            "byteLength" : 5592,
            "byteOffset" : 69052
        },
        {
            "buffer" : 0,
            "byteLength" : 3728,
            "byteOffset" : 74644
        },
        {
            "buffer" : 0,
            "byteLength" : 2352,
            "byteOffset" : 78372
        },
        {
            "buffer" : 0,
            "byteLength" : 264,
            "byteOffset" : 80724
        },
        {
            "buffer" : 0,
            "byteLength" : 264,
            "byteOffset" : 80988
        },
        {
            "buffer" : 0,
            "byteLength" : 176,
            "byteOffset" : 81252
        },
        {
            "buffer" : 0,
            "byteLength" : 72,
            "byteOffset" : 81428
        },
        {
            "buffer" : 0,
            "byteLength" : 1632,
            "byteOffset" : 81500
        },
        {
            "buffer" : 0,
            "byteLength" : 1632,
            "byteOffset" : 83132
        },
        {
            "buffer" : 0,
            "byteLength" : 2176,
            "byteOffset" : 84764
        },
        {
            "buffer" : 0,
            "byteLength" : 1088,
            "byteOffset" : 86940
        },
        {
            "buffer" : 0,
            "byteLength" : 1428,
            "byteOffset" : 88028
        },
        {
            "buffer" : 0,
            "byteLength" : 13752,
            "byteOffset" : 89456
        },
        {
            "buffer" : 0,
            "byteLength" : 13752,
            "byteOffset" : 103208
        },
        {
            "buffer" : 0,
            "byteLength" : 9168,
            "byteOffset" : 116960
        },
        {
            "buffer" : 0,
            "byteLength" : 7248,
            "byteOffset" : 126128
        },
        {
            "buffer" : 0,
            "byteLength" : 48,
            "byteOffset" : 133376
        },
        {
            "buffer" : 0,
            "byteLength" : 48,
            "byteOffset" : 133424
        },
        {
            "buffer" : 0,
            "byteLength" : 64,
            "byteOffset" : 133472
        },
        {
            "buffer" : 0,
            "byteLength" : 32,
            "byteOffset" : 133536
        },
        {
            "buffer" : 0,
            "byteLength" : 12,
            "byteOffset" : 133568
        },
        {
            "buffer" : 0,
            "byteLength" : 392133,
            "byteOffset" : 133580
        },
        {
            "buffer" : 0,
            "byteLength" : 579596,
            "byteOffset" : 525716
        }
    ],
    "samplers" : [
        {
            "magFilter" : 9729,
            "minFilter" : 9986
        }
    ],
    "buffers" : [
        {
            "byteLength" : 1105312,
            "uri" : "data:application/octet-stream;base64,"
        }
    ]
}
