{
    "asset" : {
        "copyright" : "Copyright (C) 2021 Logan Bier. All rights reserved.",
        "generator" : "Khronos glTF Blender I/O v1.6.16",
        "version" : "2.0"
    },
    "scene" : 0,
    "scenes" : [
        {
            "extras" : {
                "glTF2ExportSettings" : {
                    "export_copyright" : "Copyright (C) 2021 Logan Bier. All rights reserved.",
                    "export_extras" : 1,
                    "export_format" : "GLTF_EMBEDDED",
                    "use_selection" : 1
                }
            },
            "name" : "Scene",
            "nodes" : [
                0
            ]
        }
    ],
    "nodes" : [
        {
            "mesh" : 0,
            "name" : "ship",
            "rotation" : [
                0.5,
                0.5,
                -0.4999999701976776,
                0.5000000596046448
            ],
            "scale" : [
                1.2000000476837158,
                2.0177903175354004,
                1.2000000476837158
            ],
            "translation" : [
                -9.1843900680542,
                2.420131206512451,
                -22.95113754272461
            ]
        }
    ],
    "materials" : [
        {
            "doubleSided" : true,
            "name" : "Material",
            "pbrMetallicRoughness" : {
                "baseColorFactor" : [
                    0.800000011920929,
                    0.800000011920929,
                    0.800000011920929,
                    0.10000000149011612
                ],
                "metallicFactor" : 0,
                "roughnessFactor" : 0.5
            }
        }
    ],
    "meshes" : [
        {
            "name" : "Torus.001",
            "primitives" : [
                {
                    "attributes" : {
                        "POSITION" : 0,
                        "NORMAL" : 1,
                        "TEXCOORD_0" : 2,
                        "COLOR_0" : 3
                    },
                    "indices" : 4,
                    "material" : 0
                }
            ]
        }
    ],
    "accessors" : [
        {
            "bufferView" : 0,
            "componentType" : 5126,
            "count" : 25180,
            "max" : [
                23.566377639770508,
                12.776183128356934,
                -1.4079358577728271
            ],
            "min" : [
                -63.398170471191406,
                -3.6727705001831055,
                -12.477843284606934
            ],
            "type" : "VEC3"
        },
        {
            "bufferView" : 1,
            "componentType" : 5126,
            "count" : 25180,
            "type" : "VEC3"
        },
        {
            "bufferView" : 2,
            "componentType" : 5126,
            "count" : 25180,
            "type" : "VEC2"
        },
        {
            "bufferView" : 3,
            "componentType" : 5123,
            "count" : 25180,
            "normalized" : true,
            "type" : "VEC4"
        },
        {
            "bufferView" : 4,
            "componentType" : 5123,
            "count" : 38835,
            "type" : "SCALAR"
        }
    ],
    "bufferViews" : [
        {
            "buffer" : 0,
            "byteLength" : 302160,
            "byteOffset" : 0
        },
        {
            "buffer" : 0,
            "byteLength" : 302160,
            "byteOffset" : 302160
        },
        {
            "buffer" : 0,
            "byteLength" : 201440,
            "byteOffset" : 604320
        },
        {
            "buffer" : 0,
            "byteLength" : 201440,
            "byteOffset" : 805760
        },
        {
            "buffer" : 0,
            "byteLength" : 77670,
            "byteOffset" : 1007200
        }
    ],
    "buffers" : [
        {
            "byteLength" : 1084872,
            "uri" : "data:application/octet-stream;base64,"
        }
    ]
}
