{
    "asset" : {
        "generator" : "Khronos glTF Blender I/O v1.6.16",
        "version" : "2.0"
    },
    "scene" : 0,
    "scenes" : [
        {
            "extras" : {
                "glTF2ExportSettings" : {
                    "export_copyright" : "",
                    "export_extras" : 1,
                    "export_format" : "GLTF_EMBEDDED",
                    "export_tangents" : 1,
                    "use_selection" : 1
                }
            },
            "name" : "Scene",
            "nodes" : [
                0,
                1,
                2,
                3,
                4,
                5,
                6,
                7
            ]
        }
    ],
    "nodes" : [
        {
            "mesh" : 0,
            "name" : "Cylinder.005",
            "rotation" : [
                0,
                0.7071068286895752,
                0.7071068286895752,
                5.338508302088485e-08
            ],
            "scale" : [
                0.11758487671613693,
                0.050000011920928955,
                0.050000011920928955
            ],
            "translation" : [
                -0.6277278065681458,
                0.15571117401123047,
                -0.7499671578407288
            ]
        },
        {
            "mesh" : 1,
            "name" : "wing_1.004",
            "rotation" : [
                0.194905087351799,
                0.6797146797180176,
                0.6797146201133728,
                -0.19490499794483185
            ],
            "scale" : [
                0.11758486181497574,
                0.03013296239078045,
                0.010000001639127731
            ],
            "translation" : [
                -0.5286945700645447,
                0.02676534093916416,
                -2.035396099090576
            ]
        },
        {
            "mesh" : 2,
            "name" : "wing_1.005",
            "rotation" : [
                -0.19490498304367065,
                0.6797146797180176,
                0.6797146797180176,
                0.1949051022529602
            ],
            "scale" : [
                -0.11758486181497574,
                0.03013296239078045,
                0.010000001639127731
            ],
            "translation" : [
                -0.5647640228271484,
                0.02676534280180931,
                -2.035396099090576
            ]
        },
        {
            "mesh" : 3,
            "name" : "wing_1.006",
            "rotation" : [
                0,
                0.7071068286895752,
                0.7071068286895752,
                5.338508302088485e-08
            ],
            "scale" : [
                0.04246509447693825,
                0.01577381044626236,
                0.010000001639127731
            ],
            "translation" : [
                -0.9549733996391296,
                0.06790068745613098,
                0.8966331481933594
            ]
        },
        {
            "mesh" : 4,
            "name" : "wing_1.007",
            "rotation" : [
                0,
                0.7071068286895752,
                0.7071068286895752,
                5.338508302088485e-08
            ],
            "scale" : [
                -0.04246509447693825,
                0.01577381044626236,
                0.010000001639127731
            ],
            "translation" : [
                -0.2277354598045349,
                0.06761643290519714,
                0.8966331481933594
            ]
        },
        {
            "mesh" : 5,
            "name" : "Cylinder.006",
            "rotation" : [
                0,
                0.7071068286895752,
                0.7071068286895752,
                5.338508302088485e-08
            ],
            "scale" : [
                0.07766435295343399,
                0.07766435295343399,
                0.07766435295343399
            ],
            "translation" : [
                -1.0726220607757568,
                -0.04840464890003204,
                -2.321958541870117
            ]
        },
        {
            "mesh" : 6,
            "name" : "Cylinder.007",
            "rotation" : [
                0,
                0.7071068286895752,
                0.7071068286895752,
                5.338508302088485e-08
            ],
            "scale" : [
                0.07766435295343399,
                0.07766435295343399,
                0.07766435295343399
            ],
            "translation" : [
                -0.180242657661438,
                -0.04840472340583801,
                -2.321958541870117
            ]
        },
        {
            "mesh" : 7,
            "name" : "Cylinder.008",
            "rotation" : [
                0,
                0.7071068286895752,
                0.7071068286895752,
                5.338508302088485e-08
            ],
            "scale" : [
                0.10435991734266281,
                0.05409451946616173,
                0.10435991734266281
            ],
            "translation" : [
                -0.6259279847145081,
                -0.022321701049804688,
                -2.7792892456054688
            ]
        }
    ],
    "materials" : [
        {
            "doubleSided" : true,
            "name" : "Material",
            "pbrMetallicRoughness" : {
                "baseColorFactor" : [
                    0.800000011920929,
                    0.800000011920929,
                    0.800000011920929,
                    1
                ],
                "metallicFactor" : 0.6000000238418579,
                "roughnessFactor" : 0.4000000059604645
            }
        }
    ],
    "meshes" : [
        {
            "name" : "Cylinder.007",
            "primitives" : [
                {
                    "attributes" : {
                        "POSITION" : 0,
                        "NORMAL" : 1,
                        "TEXCOORD_0" : 2
                    },
                    "indices" : 3,
                    "material" : 0
                }
            ]
        },
        {
            "name" : "Cylinder.009",
            "primitives" : [
                {
                    "attributes" : {
                        "POSITION" : 4,
                        "NORMAL" : 5,
                        "TEXCOORD_0" : 6
                    },
                    "indices" : 7
                }
            ]
        },
        {
            "name" : "Cylinder.010",
            "primitives" : [
                {
                    "attributes" : {
                        "POSITION" : 8,
                        "NORMAL" : 9,
                        "TEXCOORD_0" : 10
                    },
                    "indices" : 11
                }
            ]
        },
        {
            "name" : "Cylinder.013",
            "primitives" : [
                {
                    "attributes" : {
                        "POSITION" : 12,
                        "NORMAL" : 13,
                        "TEXCOORD_0" : 14
                    },
                    "indices" : 7
                }
            ]
        },
        {
            "name" : "Cylinder.014",
            "primitives" : [
                {
                    "attributes" : {
                        "POSITION" : 15,
                        "NORMAL" : 16,
                        "TEXCOORD_0" : 17
                    },
                    "indices" : 11
                }
            ]
        },
        {
            "name" : "Cylinder.015",
            "primitives" : [
                {
                    "attributes" : {
                        "POSITION" : 18,
                        "NORMAL" : 19,
                        "TEXCOORD_0" : 20
                    },
                    "indices" : 21
                }
            ]
        },
        {
            "name" : "Cylinder.016",
            "primitives" : [
                {
                    "attributes" : {
                        "POSITION" : 22,
                        "NORMAL" : 23,
                        "TEXCOORD_0" : 24
                    },
                    "indices" : 21
                }
            ]
        },
        {
            "name" : "Cylinder.017",
            "primitives" : [
                {
                    "attributes" : {
                        "POSITION" : 25,
                        "NORMAL" : 26,
                        "TEXCOORD_0" : 27
                    },
                    "indices" : 21
                }
            ]
        }
    ],
    "accessors" : [
        {
            "bufferView" : 0,
            "componentType" : 5126,
            "count" : 18162,
            "max" : [
                7.056719779968262,
                53.12666320800781,
                3.4912047386169434
            ],
            "min" : [
                -7.056723117828369,
                -43.41477584838867,
                -9.792683601379395
            ],
            "type" : "VEC3"
        },
        {
            "bufferView" : 1,
            "componentType" : 5126,
            "count" : 18162,
            "type" : "VEC3"
        },
        {
            "bufferView" : 2,
            "componentType" : 5126,
            "count" : 18162,
            "type" : "VEC2"
        },
        {
            "bufferView" : 3,
            "componentType" : 5123,
            "count" : 28191,
            "type" : "SCALAR"
        },
        {
            "bufferView" : 4,
            "componentType" : 5126,
            "count" : 2040,
            "max" : [
                10.908641815185547,
                11.686894416809082,
                -3.0168356895446777
            ],
            "min" : [
                5.996798992156982,
                -34.80307388305664,
                -3.7139811515808105
            ],
            "type" : "VEC3"
        },
        {
            "bufferView" : 5,
            "componentType" : 5126,
            "count" : 2040,
            "type" : "VEC3"
        },
        {
            "bufferView" : 6,
            "componentType" : 5126,
            "count" : 2040,
            "type" : "VEC2"
        },
        {
            "bufferView" : 7,
            "componentType" : 5123,
            "count" : 3180,
            "type" : "SCALAR"
        },
        {
            "bufferView" : 8,
            "componentType" : 5126,
            "count" : 2040,
            "max" : [
                9.230222702026367,
                11.686894416809082,
                -3.0168356895446777
            ],
            "min" : [
                4.318380355834961,
                -34.80307388305664,
                -3.7139811515808105
            ],
            "type" : "VEC3"
        },
        {
            "bufferView" : 9,
            "componentType" : 5126,
            "count" : 2040,
            "type" : "VEC3"
        },
        {
            "bufferView" : 10,
            "componentType" : 5126,
            "count" : 2040,
            "type" : "VEC2"
        },
        {
            "bufferView" : 11,
            "componentType" : 5123,
            "count" : 3180,
            "type" : "SCALAR"
        },
        {
            "bufferView" : 12,
            "componentType" : 5126,
            "count" : 2040,
            "max" : [
                10.908641815185547,
                11.686894416809082,
                -3.0168356895446777
            ],
            "min" : [
                5.996798992156982,
                -34.80307388305664,
                -3.7139811515808105
            ],
            "type" : "VEC3"
        },
        {
            "bufferView" : 13,
            "componentType" : 5126,
            "count" : 2040,
            "type" : "VEC3"
        },
        {
            "bufferView" : 14,
            "componentType" : 5126,
            "count" : 2040,
            "type" : "VEC2"
        },
        {
            "bufferView" : 15,
            "componentType" : 5126,
            "count" : 2040,
            "max" : [
                9.230222702026367,
                11.686894416809082,
                -3.0168356895446777
            ],
            "min" : [
                4.318380355834961,
                -34.80307388305664,
                -3.7139811515808105
            ],
            "type" : "VEC3"
        },
        {
            "bufferView" : 16,
            "componentType" : 5126,
            "count" : 2040,
            "type" : "VEC3"
        },
        {
            "bufferView" : 17,
            "componentType" : 5126,
            "count" : 2040,
            "type" : "VEC2"
        },
        {
            "bufferView" : 18,
            "componentType" : 5126,
            "count" : 2432,
            "max" : [
                2,
                10,
                2
            ],
            "min" : [
                -2,
                -10,
                -2
            ],
            "type" : "VEC3"
        },
        {
            "bufferView" : 19,
            "componentType" : 5126,
            "count" : 2432,
            "type" : "VEC3"
        },
        {
            "bufferView" : 20,
            "componentType" : 5126,
            "count" : 2432,
            "type" : "VEC2"
        },
        {
            "bufferView" : 21,
            "componentType" : 5123,
            "count" : 3828,
            "type" : "SCALAR"
        },
        {
            "bufferView" : 22,
            "componentType" : 5126,
            "count" : 2432,
            "max" : [
                2,
                10,
                2
            ],
            "min" : [
                -2,
                -10,
                -2
            ],
            "type" : "VEC3"
        },
        {
            "bufferView" : 23,
            "componentType" : 5126,
            "count" : 2432,
            "type" : "VEC3"
        },
        {
            "bufferView" : 24,
            "componentType" : 5126,
            "count" : 2432,
            "type" : "VEC2"
        },
        {
            "bufferView" : 25,
            "componentType" : 5126,
            "count" : 2432,
            "max" : [
                2,
                10,
                2
            ],
            "min" : [
                -2,
                -10,
                -2
            ],
            "type" : "VEC3"
        },
        {
            "bufferView" : 26,
            "componentType" : 5126,
            "count" : 2432,
            "type" : "VEC3"
        },
        {
            "bufferView" : 27,
            "componentType" : 5126,
            "count" : 2432,
            "type" : "VEC2"
        }
    ],
    "bufferViews" : [
        {
            "buffer" : 0,
            "byteLength" : 217944,
            "byteOffset" : 0
        },
        {
            "buffer" : 0,
            "byteLength" : 217944,
            "byteOffset" : 217944
        },
        {
            "buffer" : 0,
            "byteLength" : 145296,
            "byteOffset" : 435888
        },
        {
            "buffer" : 0,
            "byteLength" : 56382,
            "byteOffset" : 581184
        },
        {
            "buffer" : 0,
            "byteLength" : 24480,
            "byteOffset" : 637568
        },
        {
            "buffer" : 0,
            "byteLength" : 24480,
            "byteOffset" : 662048
        },
        {
            "buffer" : 0,
            "byteLength" : 16320,
            "byteOffset" : 686528
        },
        {
            "buffer" : 0,
            "byteLength" : 6360,
            "byteOffset" : 702848
        },
        {
            "buffer" : 0,
            "byteLength" : 24480,
            "byteOffset" : 709208
        },
        {
            "buffer" : 0,
            "byteLength" : 24480,
            "byteOffset" : 733688
        },
        {
            "buffer" : 0,
            "byteLength" : 16320,
            "byteOffset" : 758168
        },
        {
            "buffer" : 0,
            "byteLength" : 6360,
            "byteOffset" : 774488
        },
        {
            "buffer" : 0,
            "byteLength" : 24480,
            "byteOffset" : 780848
        },
        {
            "buffer" : 0,
            "byteLength" : 24480,
            "byteOffset" : 805328
        },
        {
            "buffer" : 0,
            "byteLength" : 16320,
            "byteOffset" : 829808
        },
        {
            "buffer" : 0,
            "byteLength" : 24480,
            "byteOffset" : 846128
        },
        {
            "buffer" : 0,
            "byteLength" : 24480,
            "byteOffset" : 870608
        },
        {
            "buffer" : 0,
            "byteLength" : 16320,
            "byteOffset" : 895088
        },
        {
            "buffer" : 0,
            "byteLength" : 29184,
            "byteOffset" : 911408
        },
        {
            "buffer" : 0,
            "byteLength" : 29184,
            "byteOffset" : 940592
        },
        {
            "buffer" : 0,
            "byteLength" : 19456,
            "byteOffset" : 969776
        },
        {
            "buffer" : 0,
            "byteLength" : 7656,
            "byteOffset" : 989232
        },
        {
            "buffer" : 0,
            "byteLength" : 29184,
            "byteOffset" : 996888
        },
        {
            "buffer" : 0,
            "byteLength" : 29184,
            "byteOffset" : 1026072
        },
        {
            "buffer" : 0,
            "byteLength" : 19456,
            "byteOffset" : 1055256
        },
        {
            "buffer" : 0,
            "byteLength" : 29184,
            "byteOffset" : 1074712
        },
        {
            "buffer" : 0,
            "byteLength" : 29184,
            "byteOffset" : 1103896
        },
        {
            "buffer" : 0,
            "byteLength" : 19456,
            "byteOffset" : 1133080
        }
    ],
    "buffers" : [
        {
            "byteLength" : 1152536,
            "uri" : "data:application/octet-stream;base64,"
        }
    ]
}
