{
    "asset" : {
        "copyright" : "bot",
        "generator" : "Khronos glTF Blender I/O v1.6.16",
        "version" : "2.0"
    },
    "scene" : 0,
    "scenes" : [
        {
            "name" : "Scene",
            "nodes" : [
                5
            ]
        }
    ],
    "nodes" : [
        {
            "mesh" : 0,
            "name" : "ball",
            "scale" : [
                0.8317854404449463,
                0.8317854404449463,
                0.8317854404449463
            ],
            "translation" : [
                0,
                0.2805773615837097,
                0
            ]
        },
        {
            "mesh" : 1,
            "name" : "generator",
            "translation" : [
                0,
                1.3692553043365479,
                0.1986103057861328
            ]
        },
        {
            "mesh" : 2,
            "name" : "wheel_left",
            "rotation" : [
                0.7071068286895752,
                -0.7071068286895752,
                0,
                5.338509012631221e-08
            ],
            "scale" : [
                0.6448768377304077,
                0.6448768377304077,
                0.6448768377304077
            ],
            "translation" : [
                -0.6600000262260437,
                1.8358230590820312e-05,
                0
            ]
        },
        {
            "mesh" : 3,
            "name" : "wheel_right",
            "rotation" : [
                0.7071068286895752,
                -0.7071068286895752,
                0,
                5.338509012631221e-08
            ],
            "scale" : [
                0.6448768377304077,
                0.6448768377304077,
                0.6448768377304077
            ],
            "translation" : [
                0.6600000262260437,
                1.8358230590820312e-05,
                0
            ]
        },
        {
            "children" : [
                2,
                3
            ],
            "mesh" : 4,
            "name" : "wheel_chassis",
            "translation" : [
                0,
                -0.17517343163490295,
                1.5237715244293213
            ]
        },
        {
            "children" : [
                0,
                1,
                4
            ],
            "mesh" : 5,
            "name" : "body",
            "translation" : [
                0,
                0.5513668656349182,
                -1.5237715244293213
            ]
        }
    ],
    "materials" : [
        {
            "doubleSided" : true,
            "name" : "Material.002",
            "pbrMetallicRoughness" : {
                "baseColorFactor" : [
                    0.22025732696056366,
                    0.22025732696056366,
                    0.22025732696056366,
                    1
                ],
                "roughnessFactor" : 0.5
            }
        },
        {
            "doubleSided" : true,
            "name" : "Material.001",
            "pbrMetallicRoughness" : {
                "baseColorFactor" : [
                    0.08769223839044571,
                    0.35404521226882935,
                    0.8000000715255737,
                    1
                ],
                "roughnessFactor" : 0.5
            }
        },
        {
            "doubleSided" : true,
            "name" : "Material.005",
            "pbrMetallicRoughness" : {
                "baseColorFactor" : [
                    0.04954914376139641,
                    0.04954914376139641,
                    0.04954914376139641,
                    1
                ],
                "metallicFactor" : 0,
                "roughnessFactor" : 0.8417085409164429
            }
        },
        {
            "doubleSided" : true,
            "name" : "Material.004",
            "pbrMetallicRoughness" : {
                "baseColorFactor" : [
                    0.02909945324063301,
                    0.02909945324063301,
                    0.02909945324063301,
                    1
                ],
                "metallicFactor" : 0,
                "roughnessFactor" : 0.9120602607727051
            }
        },
        {
            "doubleSided" : true,
            "name" : "Material.003",
            "pbrMetallicRoughness" : {
                "baseColorFactor" : [
                    0.22025732696056366,
                    0.22025732696056366,
                    0.22025732696056366,
                    1
                ],
                "roughnessFactor" : 0.5
            }
        },
        {
            "doubleSided" : true,
            "name" : "Material",
            "pbrMetallicRoughness" : {
                "baseColorFactor" : [
                    0.22025732696056366,
                    0.22025732696056366,
                    0.22025732696056366,
                    1
                ],
                "roughnessFactor" : 0.5
            }
        }
    ],
    "meshes" : [
        {
            "name" : "Sphere.002",
            "primitives" : [
                {
                    "attributes" : {
                        "POSITION" : 0,
                        "NORMAL" : 1,
                        "TEXCOORD_0" : 2
                    },
                    "indices" : 3,
                    "material" : 0
                }
            ]
        },
        {
            "name" : "Sphere.003",
            "primitives" : [
                {
                    "attributes" : {
                        "POSITION" : 4,
                        "NORMAL" : 5,
                        "TEXCOORD_0" : 6
                    },
                    "indices" : 7,
                    "material" : 1
                }
            ]
        },
        {
            "name" : "Torus.003",
            "primitives" : [
                {
                    "attributes" : {
                        "POSITION" : 8,
                        "NORMAL" : 9,
                        "TEXCOORD_0" : 10
                    },
                    "indices" : 11,
                    "material" : 2
                }
            ]
        },
        {
            "name" : "Torus.004",
            "primitives" : [
                {
                    "attributes" : {
                        "POSITION" : 12,
                        "NORMAL" : 13,
                        "TEXCOORD_0" : 14
                    },
                    "indices" : 11,
                    "material" : 3
                }
            ]
        },
        {
            "name" : "Cylinder",
            "primitives" : [
                {
                    "attributes" : {
                        "POSITION" : 15,
                        "NORMAL" : 16,
                        "TEXCOORD_0" : 17
                    },
                    "indices" : 18,
                    "material" : 4
                }
            ]
        },
        {
            "name" : "Sphere",
            "primitives" : [
                {
                    "attributes" : {
                        "POSITION" : 19,
                        "NORMAL" : 20,
                        "TEXCOORD_0" : 21
                    },
                    "indices" : 22,
                    "material" : 5
                }
            ]
        }
    ],
    "accessors" : [
        {
            "bufferView" : 0,
            "componentType" : 5126,
            "count" : 559,
            "max" : [
                1.000000238418579,
                1,
                1.0000003576278687
            ],
            "min" : [
                -0.9999998211860657,
                -1,
                -1
            ],
            "type" : "VEC3"
        },
        {
            "bufferView" : 1,
            "componentType" : 5126,
            "count" : 559,
            "type" : "VEC3"
        },
        {
            "bufferView" : 2,
            "componentType" : 5126,
            "count" : 559,
            "type" : "VEC2"
        },
        {
            "bufferView" : 3,
            "componentType" : 5123,
            "count" : 2880,
            "type" : "SCALAR"
        },
        {
            "bufferView" : 4,
            "componentType" : 5126,
            "count" : 394,
            "max" : [
                0.6202148795127869,
                0.6202147603034973,
                0.6202149987220764
            ],
            "min" : [
                -0.6202146410942078,
                -0.23781819641590118,
                -0.6202147603034973
            ],
            "type" : "VEC3"
        },
        {
            "bufferView" : 5,
            "componentType" : 5126,
            "count" : 394,
            "type" : "VEC3"
        },
        {
            "bufferView" : 6,
            "componentType" : 5126,
            "count" : 394,
            "type" : "VEC2"
        },
        {
            "bufferView" : 7,
            "componentType" : 5123,
            "count" : 1920,
            "type" : "SCALAR"
        },
        {
            "bufferView" : 8,
            "componentType" : 5126,
            "count" : 637,
            "max" : [
                0.5800000429153442,
                0.25,
                0.5800000429153442
            ],
            "min" : [
                -0.5800000429153442,
                -0.25,
                -0.5800000429153442
            ],
            "type" : "VEC3"
        },
        {
            "bufferView" : 9,
            "componentType" : 5126,
            "count" : 637,
            "type" : "VEC3"
        },
        {
            "bufferView" : 10,
            "componentType" : 5126,
            "count" : 637,
            "type" : "VEC2"
        },
        {
            "bufferView" : 11,
            "componentType" : 5123,
            "count" : 3456,
            "type" : "SCALAR"
        },
        {
            "bufferView" : 12,
            "componentType" : 5126,
            "count" : 637,
            "max" : [
                0.5800000429153442,
                0.25,
                0.5800000429153442
            ],
            "min" : [
                -0.5800000429153442,
                -0.25,
                -0.5800000429153442
            ],
            "type" : "VEC3"
        },
        {
            "bufferView" : 13,
            "componentType" : 5126,
            "count" : 637,
            "type" : "VEC3"
        },
        {
            "bufferView" : 14,
            "componentType" : 5126,
            "count" : 637,
            "type" : "VEC2"
        },
        {
            "bufferView" : 15,
            "componentType" : 5126,
            "count" : 1344,
            "max" : [
                0.7409005165100098,
                0.47043776512145996,
                0.46938103437423706
            ],
            "min" : [
                -0.7409005165100098,
                -0.0032443173695355654,
                -0.4693810045719147
            ],
            "type" : "VEC3"
        },
        {
            "bufferView" : 16,
            "componentType" : 5126,
            "count" : 1344,
            "type" : "VEC3"
        },
        {
            "bufferView" : 17,
            "componentType" : 5126,
            "count" : 1344,
            "type" : "VEC2"
        },
        {
            "bufferView" : 18,
            "componentType" : 5123,
            "count" : 2004,
            "type" : "SCALAR"
        },
        {
            "bufferView" : 19,
            "componentType" : 5126,
            "count" : 826,
            "max" : [
                0.9999997615814209,
                1.5073662996292114,
                2.009254217147827
            ],
            "min" : [
                -1.000000238418579,
                -0.17276543378829956,
                -1.0000003576278687
            ],
            "type" : "VEC3"
        },
        {
            "bufferView" : 20,
            "componentType" : 5126,
            "count" : 826,
            "type" : "VEC3"
        },
        {
            "bufferView" : 21,
            "componentType" : 5126,
            "count" : 826,
            "type" : "VEC2"
        },
        {
            "bufferView" : 22,
            "componentType" : 5123,
            "count" : 3642,
            "type" : "SCALAR"
        }
    ],
    "bufferViews" : [
        {
            "buffer" : 0,
            "byteLength" : 6708,
            "byteOffset" : 0
        },
        {
            "buffer" : 0,
            "byteLength" : 6708,
            "byteOffset" : 6708
        },
        {
            "buffer" : 0,
            "byteLength" : 4472,
            "byteOffset" : 13416
        },
        {
            "buffer" : 0,
            "byteLength" : 5760,
            "byteOffset" : 17888
        },
        {
            "buffer" : 0,
            "byteLength" : 4728,
            "byteOffset" : 23648
        },
        {
            "buffer" : 0,
            "byteLength" : 4728,
            "byteOffset" : 28376
        },
        {
            "buffer" : 0,
            "byteLength" : 3152,
            "byteOffset" : 33104
        },
        {
            "buffer" : 0,
            "byteLength" : 3840,
            "byteOffset" : 36256
        },
        {
            "buffer" : 0,
            "byteLength" : 7644,
            "byteOffset" : 40096
        },
        {
            "buffer" : 0,
            "byteLength" : 7644,
            "byteOffset" : 47740
        },
        {
            "buffer" : 0,
            "byteLength" : 5096,
            "byteOffset" : 55384
        },
        {
            "buffer" : 0,
            "byteLength" : 6912,
            "byteOffset" : 60480
        },
        {
            "buffer" : 0,
            "byteLength" : 7644,
            "byteOffset" : 67392
        },
        {
            "buffer" : 0,
            "byteLength" : 7644,
            "byteOffset" : 75036
        },
        {
            "buffer" : 0,
            "byteLength" : 5096,
            "byteOffset" : 82680
        },
        {
            "buffer" : 0,
            "byteLength" : 16128,
            "byteOffset" : 87776
        },
        {
            "buffer" : 0,
            "byteLength" : 16128,
            "byteOffset" : 103904
        },
        {
            "buffer" : 0,
            "byteLength" : 10752,
            "byteOffset" : 120032
        },
        {
            "buffer" : 0,
            "byteLength" : 4008,
            "byteOffset" : 130784
        },
        {
            "buffer" : 0,
            "byteLength" : 9912,
            "byteOffset" : 134792
        },
        {
            "buffer" : 0,
            "byteLength" : 9912,
            "byteOffset" : 144704
        },
        {
            "buffer" : 0,
            "byteLength" : 6608,
            "byteOffset" : 154616
        },
        {
            "buffer" : 0,
            "byteLength" : 7284,
            "byteOffset" : 161224
        }
    ],
    "buffers" : [
        {
            "byteLength" : 168508,
            "uri" : "data:application/octet-stream;base64,"
        }
    ]
}
