{
    "asset" : {
        "copyright" : "compartment",
        "generator" : "Khronos glTF Blender I/O v1.6.16",
        "version" : "2.0"
    },
    "scene" : 0,
    "scenes" : [
        {
            "name" : "Scene",
            "nodes" : [
                12
            ]
        }
    ],
    "nodes" : [
        {
            "mesh" : 0,
            "name" : "blade.001",
            "translation" : [
                -3.4589648246765137,
                -0.11986920237541199,
                -3.403599748708075e-06
            ]
        },
        {
            "mesh" : 1,
            "name" : "blade.002",
            "translation" : [
                -2.995685577392578,
                -0.10831128805875778,
                1.7286516427993774
            ]
        },
        {
            "mesh" : 2,
            "name" : "blade.003",
            "translation" : [
                -1.7300140857696533,
                -0.10831128805875778,
                2.994899034500122
            ]
        },
        {
            "mesh" : 3,
            "name" : "blade.004",
            "translation" : [
                -0.0018910827348008752,
                -0.10831128060817719,
                3.4474029541015625
            ]
        },
        {
            "mesh" : 4,
            "name" : "blade.005",
            "translation" : [
                1.7220637798309326,
                -0.10831128060817719,
                2.9864840507507324
            ]
        },
        {
            "mesh" : 5,
            "name" : "blade.006",
            "translation" : [
                2.984593152999878,
                -0.10831128060817719,
                1.7253392934799194
            ]
        },
        {
            "mesh" : 6,
            "name" : "blade.007",
            "translation" : [
                3.4528610706329346,
                -0.11227864027023315,
                0.025634538382291794
            ]
        },
        {
            "mesh" : 7,
            "name" : "blade.008",
            "translation" : [
                3.003082513809204,
                -0.11608152091503143,
                -1.7042304277420044
            ]
        },
        {
            "mesh" : 8,
            "name" : "blade.009",
            "translation" : [
                1.7468947172164917,
                -0.11608154326677322,
                -2.9904561042785645
            ]
        },
        {
            "mesh" : 9,
            "name" : "blade.010",
            "translation" : [
                0.017627127468585968,
                -0.11608154326677322,
                -3.4632585048675537
            ]
        },
        {
            "mesh" : 10,
            "name" : "blade.011",
            "translation" : [
                -1.7180994749069214,
                -0.11608158051967621,
                -3.0210914611816406
            ]
        },
        {
            "mesh" : 11,
            "name" : "blade.012",
            "translation" : [
                -3.000199556350708,
                -0.1160816103219986,
                -1.7703006267547607
            ]
        },
        {
            "children" : [
                0,
                1,
                2,
                3,
                4,
                5,
                6,
                7,
                8,
                9,
                10,
                11
            ],
            "mesh" : 12,
            "name" : "cage",
            "rotation" : [
                1,
                0,
                0,
                -4.371138828673793e-08
            ]
        }
    ],
    "meshes" : [
        {
            "name" : "Cylinder.003",
            "primitives" : [
                {
                    "attributes" : {
                        "POSITION" : 0,
                        "NORMAL" : 1,
                        "TEXCOORD_0" : 2
                    },
                    "indices" : 3
                }
            ]
        },
        {
            "name" : "Cylinder.004",
            "primitives" : [
                {
                    "attributes" : {
                        "POSITION" : 4,
                        "NORMAL" : 5,
                        "TEXCOORD_0" : 6
                    },
                    "indices" : 3
                }
            ]
        },
        {
            "name" : "Cylinder.005",
            "primitives" : [
                {
                    "attributes" : {
                        "POSITION" : 7,
                        "NORMAL" : 8,
                        "TEXCOORD_0" : 9
                    },
                    "indices" : 3
                }
            ]
        },
        {
            "name" : "Cylinder.006",
            "primitives" : [
                {
                    "attributes" : {
                        "POSITION" : 10,
                        "NORMAL" : 11,
                        "TEXCOORD_0" : 12
                    },
                    "indices" : 3
                }
            ]
        },
        {
            "name" : "Cylinder.007",
            "primitives" : [
                {
                    "attributes" : {
                        "POSITION" : 13,
                        "NORMAL" : 14,
                        "TEXCOORD_0" : 15
                    },
                    "indices" : 3
                }
            ]
        },
        {
            "name" : "Cylinder.008",
            "primitives" : [
                {
                    "attributes" : {
                        "POSITION" : 16,
                        "NORMAL" : 17,
                        "TEXCOORD_0" : 18
                    },
                    "indices" : 3
                }
            ]
        },
        {
            "name" : "Cylinder.009",
            "primitives" : [
                {
                    "attributes" : {
                        "POSITION" : 19,
                        "NORMAL" : 20,
                        "TEXCOORD_0" : 21
                    },
                    "indices" : 3
                }
            ]
        },
        {
            "name" : "Cylinder.010",
            "primitives" : [
                {
                    "attributes" : {
                        "POSITION" : 22,
                        "NORMAL" : 23,
                        "TEXCOORD_0" : 24
                    },
                    "indices" : 3
                }
            ]
        },
        {
            "name" : "Cylinder.011",
            "primitives" : [
                {
                    "attributes" : {
                        "POSITION" : 25,
                        "NORMAL" : 26,
                        "TEXCOORD_0" : 27
                    },
                    "indices" : 3
                }
            ]
        },
        {
            "name" : "Cylinder.012",
            "primitives" : [
                {
                    "attributes" : {
                        "POSITION" : 28,
                        "NORMAL" : 29,
                        "TEXCOORD_0" : 30
                    },
                    "indices" : 3
                }
            ]
        },
        {
            "name" : "Cylinder.013",
            "primitives" : [
                {
                    "attributes" : {
                        "POSITION" : 31,
                        "NORMAL" : 32,
                        "TEXCOORD_0" : 33
                    },
                    "indices" : 3
                }
            ]
        },
        {
            "name" : "Cylinder.002",
            "primitives" : [
                {
                    "attributes" : {
                        "POSITION" : 34,
                        "NORMAL" : 35,
                        "TEXCOORD_0" : 36
                    },
                    "indices" : 3
                }
            ]
        },
        {
            "name" : "Plane.001",
            "primitives" : [
                {
                    "attributes" : {
                        "POSITION" : 37,
                        "NORMAL" : 38,
                        "TEXCOORD_0" : 39
                    },
                    "indices" : 40
                }
            ]
        }
    ],
    "accessors" : [
        {
            "bufferView" : 0,
            "componentType" : 5126,
            "count" : 746,
            "max" : [
                3.6101388931274414,
                0.07937955111265182,
                4.087741374969482
            ],
            "min" : [
                -0.6619692444801331,
                -0.2177535444498062,
                0.027492910623550415
            ],
            "type" : "VEC3"
        },
        {
            "bufferView" : 1,
            "componentType" : 5126,
            "count" : 746,
            "type" : "VEC3"
        },
        {
            "bufferView" : 2,
            "componentType" : 5126,
            "count" : 746,
            "type" : "VEC2"
        },
        {
            "bufferView" : 3,
            "componentType" : 5123,
            "count" : 3246,
            "type" : "SCALAR"
        },
        {
            "bufferView" : 4,
            "componentType" : 5126,
            "count" : 746,
            "max" : [
                4.879734039306641,
                0.07754728198051453,
                2.4097373485565186
            ],
            "min" : [
                -0.3901880979537964,
                -0.21945476531982422,
                -0.18895165622234344
            ],
            "type" : "VEC3"
        },
        {
            "bufferView" : 5,
            "componentType" : 5126,
            "count" : 746,
            "type" : "VEC3"
        },
        {
            "bufferView" : 6,
            "componentType" : 5126,
            "count" : 746,
            "type" : "VEC2"
        },
        {
            "bufferView" : 7,
            "componentType" : 5126,
            "count" : 746,
            "max" : [
                5.040079116821289,
                0.07754728198051453,
                1.156774878501892
            ],
            "min" : [
                -0.11446286737918854,
                -0.21945476531982422,
                -1.5483218431472778
            ],
            "type" : "VEC3"
        },
        {
            "bufferView" : 8,
            "componentType" : 5126,
            "count" : 746,
            "type" : "VEC3"
        },
        {
            "bufferView" : 9,
            "componentType" : 5126,
            "count" : 746,
            "type" : "VEC2"
        },
        {
            "bufferView" : 10,
            "componentType" : 5126,
            "count" : 746,
            "max" : [
                4.0888872146606445,
                0.07754728198051453,
                0.6623867154121399
            ],
            "min" : [
                0.02749326080083847,
                -0.21945476531982422,
                -3.608703374862671
            ],
            "type" : "VEC3"
        },
        {
            "bufferView" : 11,
            "componentType" : 5126,
            "count" : 746,
            "type" : "VEC3"
        },
        {
            "bufferView" : 12,
            "componentType" : 5126,
            "count" : 746,
            "type" : "VEC2"
        },
        {
            "bufferView" : 13,
            "componentType" : 5126,
            "count" : 746,
            "max" : [
                2.409736394882202,
                0.07754728198051453,
                0.39018797874450684
            ],
            "min" : [
                -0.1889517903327942,
                -0.21945476531982422,
                -4.879734516143799
            ],
            "type" : "VEC3"
        },
        {
            "bufferView" : 14,
            "componentType" : 5126,
            "count" : 746,
            "type" : "VEC3"
        },
        {
            "bufferView" : 15,
            "componentType" : 5126,
            "count" : 746,
            "type" : "VEC2"
        },
        {
            "bufferView" : 16,
            "componentType" : 5126,
            "count" : 746,
            "max" : [
                1.1567747592926025,
                0.07754728198051453,
                0.11446283012628555
            ],
            "min" : [
                -1.5483218431472778,
                -0.21945476531982422,
                -5.040079116821289
            ],
            "type" : "VEC3"
        },
        {
            "bufferView" : 17,
            "componentType" : 5126,
            "count" : 746,
            "type" : "VEC3"
        },
        {
            "bufferView" : 18,
            "componentType" : 5126,
            "count" : 746,
            "type" : "VEC2"
        },
        {
            "bufferView" : 19,
            "componentType" : 5126,
            "count" : 746,
            "max" : [
                0.6652346253395081,
                0.07754728198051453,
                -0.028050629422068596
            ],
            "min" : [
                -3.5913844108581543,
                -0.21945476531982422,
                -4.103362560272217
            ],
            "type" : "VEC3"
        },
        {
            "bufferView" : 20,
            "componentType" : 5126,
            "count" : 746,
            "type" : "VEC3"
        },
        {
            "bufferView" : 21,
            "componentType" : 5126,
            "count" : 746,
            "type" : "VEC2"
        },
        {
            "bufferView" : 22,
            "componentType" : 5126,
            "count" : 746,
            "max" : [
                0.390188068151474,
                0.07754728198051453,
                0.1889517456293106
            ],
            "min" : [
                -4.879734516143799,
                -0.21945473551750183,
                -2.4097368717193604
            ],
            "type" : "VEC3"
        },
        {
            "bufferView" : 23,
            "componentType" : 5126,
            "count" : 746,
            "type" : "VEC3"
        },
        {
            "bufferView" : 24,
            "componentType" : 5126,
            "count" : 746,
            "type" : "VEC2"
        },
        {
            "bufferView" : 25,
            "componentType" : 5126,
            "count" : 746,
            "max" : [
                0.11446226388216019,
                0.07754728198051453,
                1.548327088356018
            ],
            "min" : [
                -5.040078639984131,
                -0.21945473551750183,
                -1.1567729711532593
            ],
            "type" : "VEC3"
        },
        {
            "bufferView" : 26,
            "componentType" : 5126,
            "count" : 746,
            "type" : "VEC3"
        },
        {
            "bufferView" : 27,
            "componentType" : 5126,
            "count" : 746,
            "type" : "VEC2"
        },
        {
            "bufferView" : 28,
            "componentType" : 5126,
            "count" : 746,
            "max" : [
                -0.02749313786625862,
                0.07754728198051453,
                3.6087074279785156
            ],
            "min" : [
                -4.088884353637695,
                -0.21945473551750183,
                -0.6623861193656921
            ],
            "type" : "VEC3"
        },
        {
            "bufferView" : 29,
            "componentType" : 5126,
            "count" : 746,
            "type" : "VEC3"
        },
        {
            "bufferView" : 30,
            "componentType" : 5126,
            "count" : 746,
            "type" : "VEC2"
        },
        {
            "bufferView" : 31,
            "componentType" : 5126,
            "count" : 746,
            "max" : [
                0.18895223736763,
                0.07754728198051453,
                4.879735469818115
            ],
            "min" : [
                -2.409734010696411,
                -0.21945473551750183,
                -0.3901875615119934
            ],
            "type" : "VEC3"
        },
        {
            "bufferView" : 32,
            "componentType" : 5126,
            "count" : 746,
            "type" : "VEC3"
        },
        {
            "bufferView" : 33,
            "componentType" : 5126,
            "count" : 746,
            "type" : "VEC2"
        },
        {
            "bufferView" : 34,
            "componentType" : 5126,
            "count" : 746,
            "max" : [
                1.532971739768982,
                0.07754728198051453,
                5.042881011962891
            ],
            "min" : [
                -1.1629489660263062,
                -0.21945473551750183,
                -0.11624528467655182
            ],
            "type" : "VEC3"
        },
        {
            "bufferView" : 35,
            "componentType" : 5126,
            "count" : 746,
            "type" : "VEC3"
        },
        {
            "bufferView" : 36,
            "componentType" : 5126,
            "count" : 746,
            "type" : "VEC2"
        },
        {
            "bufferView" : 37,
            "componentType" : 5126,
            "count" : 380,
            "max" : [
                4.494348526000977,
                0,
                4.494348526000977
            ],
            "min" : [
                -4.494348526000977,
                -5.707228183746338,
                -4.494348526000977
            ],
            "type" : "VEC3"
        },
        {
            "bufferView" : 38,
            "componentType" : 5126,
            "count" : 380,
            "type" : "VEC3"
        },
        {
            "bufferView" : 39,
            "componentType" : 5126,
            "count" : 380,
            "type" : "VEC2"
        },
        {
            "bufferView" : 40,
            "componentType" : 5123,
            "count" : 1506,
            "type" : "SCALAR"
        }
    ],
    "bufferViews" : [
        {
            "buffer" : 0,
            "byteLength" : 8952,
            "byteOffset" : 0
        },
        {
            "buffer" : 0,
            "byteLength" : 8952,
            "byteOffset" : 8952
        },
        {
            "buffer" : 0,
            "byteLength" : 5968,
            "byteOffset" : 17904
        },
        {
            "buffer" : 0,
            "byteLength" : 6492,
            "byteOffset" : 23872
        },
        {
            "buffer" : 0,
            "byteLength" : 8952,
            "byteOffset" : 30364
        },
        {
            "buffer" : 0,
            "byteLength" : 8952,
            "byteOffset" : 39316
        },
        {
            "buffer" : 0,
            "byteLength" : 5968,
            "byteOffset" : 48268
        },
        {
            "buffer" : 0,
            "byteLength" : 8952,
            "byteOffset" : 54236
        },
        {
            "buffer" : 0,
            "byteLength" : 8952,
            "byteOffset" : 63188
        },
        {
            "buffer" : 0,
            "byteLength" : 5968,
            "byteOffset" : 72140
        },
        {
            "buffer" : 0,
            "byteLength" : 8952,
            "byteOffset" : 78108
        },
        {
            "buffer" : 0,
            "byteLength" : 8952,
            "byteOffset" : 87060
        },
        {
            "buffer" : 0,
            "byteLength" : 5968,
            "byteOffset" : 96012
        },
        {
            "buffer" : 0,
            "byteLength" : 8952,
            "byteOffset" : 101980
        },
        {
            "buffer" : 0,
            "byteLength" : 8952,
            "byteOffset" : 110932
        },
        {
            "buffer" : 0,
            "byteLength" : 5968,
            "byteOffset" : 119884
        },
        {
            "buffer" : 0,
            "byteLength" : 8952,
            "byteOffset" : 125852
        },
        {
            "buffer" : 0,
            "byteLength" : 8952,
            "byteOffset" : 134804
        },
        {
            "buffer" : 0,
            "byteLength" : 5968,
            "byteOffset" : 143756
        },
        {
            "buffer" : 0,
            "byteLength" : 8952,
            "byteOffset" : 149724
        },
        {
            "buffer" : 0,
            "byteLength" : 8952,
            "byteOffset" : 158676
        },
        {
            "buffer" : 0,
            "byteLength" : 5968,
            "byteOffset" : 167628
        },
        {
            "buffer" : 0,
            "byteLength" : 8952,
            "byteOffset" : 173596
        },
        {
            "buffer" : 0,
            "byteLength" : 8952,
            "byteOffset" : 182548
        },
        {
            "buffer" : 0,
            "byteLength" : 5968,
            "byteOffset" : 191500
        },
        {
            "buffer" : 0,
            "byteLength" : 8952,
            "byteOffset" : 197468
        },
        {
            "buffer" : 0,
            "byteLength" : 8952,
            "byteOffset" : 206420
        },
        {
            "buffer" : 0,
            "byteLength" : 5968,
            "byteOffset" : 215372
        },
        {
            "buffer" : 0,
            "byteLength" : 8952,
            "byteOffset" : 221340
        },
        {
            "buffer" : 0,
            "byteLength" : 8952,
            "byteOffset" : 230292
        },
        {
            "buffer" : 0,
            "byteLength" : 5968,
            "byteOffset" : 239244
        },
        {
            "buffer" : 0,
            "byteLength" : 8952,
            "byteOffset" : 245212
        },
        {
            "buffer" : 0,
            "byteLength" : 8952,
            "byteOffset" : 254164
        },
        {
            "buffer" : 0,
            "byteLength" : 5968,
            "byteOffset" : 263116
        },
        {
            "buffer" : 0,
            "byteLength" : 8952,
            "byteOffset" : 269084
        },
        {
            "buffer" : 0,
            "byteLength" : 8952,
            "byteOffset" : 278036
        },
        {
            "buffer" : 0,
            "byteLength" : 5968,
            "byteOffset" : 286988
        },
        {
            "buffer" : 0,
            "byteLength" : 4560,
            "byteOffset" : 292956
        },
        {
            "buffer" : 0,
            "byteLength" : 4560,
            "byteOffset" : 297516
        },
        {
            "buffer" : 0,
            "byteLength" : 3040,
            "byteOffset" : 302076
        },
        {
            "buffer" : 0,
            "byteLength" : 3012,
            "byteOffset" : 305116
        }
    ],
    "buffers" : [
        {
            "byteLength" : 308128,
            "uri" : "data:application/octet-stream;base64,"
        }
    ]
}
