{
    "asset" : {
        "copyright" : "drone",
        "generator" : "Khronos glTF Blender I/O v1.6.16",
        "version" : "2.0"
    },
    "scene" : 0,
    "scenes" : [
        {
            "name" : "Scene",
            "nodes" : [
                9
            ]
        }
    ],
    "nodes" : [
        {
            "mesh" : 0,
            "name" : "propeller_front_left",
            "translation" : [
                -0.6260073781013489,
                0.2253376543521881,
                -0.6257150173187256
            ]
        },
        {
            "children" : [
                0
            ],
            "mesh" : 1,
            "name" : "arm_front_left",
            "translation" : [
                -0.5771777033805847,
                0,
                -0.5771777629852295
            ]
        },
        {
            "mesh" : 2,
            "name" : "propeller_front_right",
            "translation" : [
                0.6257149577140808,
                0.2253376543521881,
                -0.6260073184967041
            ]
        },
        {
            "children" : [
                2
            ],
            "mesh" : 3,
            "name" : "arm_front_right",
            "translation" : [
                0.5771778225898743,
                0,
                -0.577177882194519
            ]
        },
        {
            "mesh" : 4,
            "name" : "propeller_rear_left",
            "translation" : [
                -0.6257145404815674,
                0.2253376543521881,
                0.6260074973106384
            ]
        },
        {
            "children" : [
                4
            ],
            "mesh" : 5,
            "name" : "arm_rear_left",
            "translation" : [
                -0.5729873180389404,
                -0.0027225546073168516,
                0.7967378497123718
            ]
        },
        {
            "mesh" : 6,
            "name" : "propeller_rear_right",
            "translation" : [
                0.6260074973106384,
                0.2253376543521881,
                0.625714898109436
            ]
        },
        {
            "children" : [
                6
            ],
            "mesh" : 7,
            "name" : "arm_rear_right",
            "translation" : [
                0.5771778225898743,
                0,
                0.7896665334701538
            ]
        },
        {
            "mesh" : 8,
            "name" : "generator",
            "translation" : [
                0,
                -0.08270032703876495,
                0
            ]
        },
        {
            "children" : [
                1,
                3,
                5,
                7,
                8
            ],
            "mesh" : 9,
            "name" : "body"
        }
    ],
    "materials" : [
        {
            "doubleSided" : true,
            "name" : "Material.007",
            "pbrMetallicRoughness" : {
                "baseColorFactor" : [
                    0.800000011920929,
                    0.800000011920929,
                    0.800000011920929,
                    1
                ],
                "metallicFactor" : 0,
                "roughnessFactor" : 0.10000000149011612
            }
        },
        {
            "doubleSided" : true,
            "name" : "Material.003",
            "pbrMetallicRoughness" : {
                "baseColorFactor" : [
                    0.1912018060684204,
                    0.19120170176029205,
                    0.19120174646377563,
                    1
                ],
                "metallicFactor" : 0.8479999899864197,
                "roughnessFactor" : 0.5
            }
        },
        {
            "doubleSided" : true,
            "name" : "Material.006",
            "pbrMetallicRoughness" : {
                "baseColorFactor" : [
                    0.800000011920929,
                    0.800000011920929,
                    0.800000011920929,
                    1
                ],
                "metallicFactor" : 0,
                "roughnessFactor" : 0.10000000149011612
            }
        },
        {
            "doubleSided" : true,
            "name" : "Material.002",
            "pbrMetallicRoughness" : {
                "baseColorFactor" : [
                    0.1912018060684204,
                    0.19120170176029205,
                    0.19120174646377563,
                    1
                ],
                "metallicFactor" : 0.8479999899864197,
                "roughnessFactor" : 0.5
            }
        },
        {
            "doubleSided" : true,
            "name" : "Material.008",
            "pbrMetallicRoughness" : {
                "baseColorFactor" : [
                    0.800000011920929,
                    0.800000011920929,
                    0.800000011920929,
                    1
                ],
                "metallicFactor" : 0,
                "roughnessFactor" : 0.10000000149011612
            }
        },
        {
            "doubleSided" : true,
            "name" : "Material.004",
            "pbrMetallicRoughness" : {
                "baseColorFactor" : [
                    0.1912018060684204,
                    0.19120170176029205,
                    0.19120174646377563,
                    1
                ],
                "metallicFactor" : 0.8479999899864197,
                "roughnessFactor" : 0.5
            }
        },
        {
            "doubleSided" : true,
            "name" : "Material.005",
            "pbrMetallicRoughness" : {
                "baseColorFactor" : [
                    0.800000011920929,
                    0.800000011920929,
                    0.800000011920929,
                    1
                ],
                "metallicFactor" : 0,
                "roughnessFactor" : 0.10000000149011612
            }
        },
        {
            "doubleSided" : true,
            "name" : "Material.001",
            "pbrMetallicRoughness" : {
                "baseColorFactor" : [
                    0.1912018060684204,
                    0.19120170176029205,
                    0.19120174646377563,
                    1
                ],
                "metallicFactor" : 0.8479999899864197,
                "roughnessFactor" : 0.5
            }
        },
        {
            "doubleSided" : true,
            "name" : "Material.009",
            "pbrMetallicRoughness" : {
                "baseColorFactor" : [
                    0.2144000083208084,
                    0.3924223482608795,
                    0.800000011920929,
                    1
                ],
                "metallicFactor" : 0.8539999723434448,
                "roughnessFactor" : 0.5
            }
        },
        {
            "doubleSided" : true,
            "name" : "Material",
            "pbrMetallicRoughness" : {
                "baseColorFactor" : [
                    0.1912018060684204,
                    0.19120170176029205,
                    0.19120174646377563,
                    1
                ],
                "metallicFactor" : 0.8479999899864197,
                "roughnessFactor" : 0.5
            }
        }
    ],
    "meshes" : [
        {
            "name" : "Cylinder.003",
            "primitives" : [
                {
                    "attributes" : {
                        "POSITION" : 0,
                        "NORMAL" : 1,
                        "TEXCOORD_0" : 2
                    },
                    "indices" : 3,
                    "material" : 0
                }
            ]
        },
        {
            "name" : "Cube",
            "primitives" : [
                {
                    "attributes" : {
                        "POSITION" : 4,
                        "NORMAL" : 5,
                        "TEXCOORD_0" : 6
                    },
                    "indices" : 7,
                    "material" : 1
                }
            ]
        },
        {
            "name" : "Cylinder.005",
            "primitives" : [
                {
                    "attributes" : {
                        "POSITION" : 8,
                        "NORMAL" : 9,
                        "TEXCOORD_0" : 10
                    },
                    "indices" : 11,
                    "material" : 2
                }
            ]
        },
        {
            "name" : "Cube.006",
            "primitives" : [
                {
                    "attributes" : {
                        "POSITION" : 12,
                        "NORMAL" : 13,
                        "TEXCOORD_0" : 14
                    },
                    "indices" : 7,
                    "material" : 3
                }
            ]
        },
        {
            "name" : "Cylinder.009",
            "primitives" : [
                {
                    "attributes" : {
                        "POSITION" : 15,
                        "NORMAL" : 16,
                        "TEXCOORD_0" : 17
                    },
                    "indices" : 18,
                    "material" : 4
                }
            ]
        },
        {
            "name" : "Cube.015",
            "primitives" : [
                {
                    "attributes" : {
                        "POSITION" : 19,
                        "NORMAL" : 20,
                        "TEXCOORD_0" : 21
                    },
                    "indices" : 7,
                    "material" : 5
                }
            ]
        },
        {
            "name" : "Cylinder.007",
            "primitives" : [
                {
                    "attributes" : {
                        "POSITION" : 22,
                        "NORMAL" : 23,
                        "TEXCOORD_0" : 24
                    },
                    "indices" : 25,
                    "material" : 6
                }
            ]
        },
        {
            "name" : "Cube.011",
            "primitives" : [
                {
                    "attributes" : {
                        "POSITION" : 26,
                        "NORMAL" : 27,
                        "TEXCOORD_0" : 28
                    },
                    "indices" : 7,
                    "material" : 7
                }
            ]
        },
        {
            "name" : "Sphere.002",
            "primitives" : [
                {
                    "attributes" : {
                        "POSITION" : 29,
                        "NORMAL" : 30,
                        "TEXCOORD_0" : 31
                    },
                    "indices" : 32,
                    "material" : 8
                }
            ]
        },
        {
            "name" : "Sphere",
            "primitives" : [
                {
                    "attributes" : {
                        "POSITION" : 33,
                        "NORMAL" : 34,
                        "TEXCOORD_0" : 35
                    },
                    "indices" : 36,
                    "material" : 9
                }
            ]
        }
    ],
    "accessors" : [
        {
            "bufferView" : 0,
            "componentType" : 5126,
            "count" : 445,
            "max" : [
                0.5084190964698792,
                0.055214956402778625,
                0.5106168985366821
            ],
            "min" : [
                -0.5034406781196594,
                -0.04672442376613617,
                -0.506223738193512
            ],
            "type" : "VEC3"
        },
        {
            "bufferView" : 1,
            "componentType" : 5126,
            "count" : 445,
            "type" : "VEC3"
        },
        {
            "bufferView" : 2,
            "componentType" : 5126,
            "count" : 445,
            "type" : "VEC2"
        },
        {
            "bufferView" : 3,
            "componentType" : 5123,
            "count" : 1260,
            "type" : "SCALAR"
        },
        {
            "bufferView" : 4,
            "componentType" : 5126,
            "count" : 1349,
            "max" : [
                0.4365476369857788,
                0.20169197022914886,
                0.43654775619506836
            ],
            "min" : [
                -0.7658732533454895,
                -0.3259916305541992,
                -0.7658735513687134
            ],
            "type" : "VEC3"
        },
        {
            "bufferView" : 5,
            "componentType" : 5126,
            "count" : 1349,
            "type" : "VEC3"
        },
        {
            "bufferView" : 6,
            "componentType" : 5126,
            "count" : 1349,
            "type" : "VEC2"
        },
        {
            "bufferView" : 7,
            "componentType" : 5123,
            "count" : 4848,
            "type" : "SCALAR"
        },
        {
            "bufferView" : 8,
            "componentType" : 5126,
            "count" : 445,
            "max" : [
                0.5062233805656433,
                0.055214956402778625,
                0.5084190964698792
            ],
            "min" : [
                -0.5106170177459717,
                -0.04672442376613617,
                -0.5034409165382385
            ],
            "type" : "VEC3"
        },
        {
            "bufferView" : 9,
            "componentType" : 5126,
            "count" : 445,
            "type" : "VEC3"
        },
        {
            "bufferView" : 10,
            "componentType" : 5126,
            "count" : 445,
            "type" : "VEC2"
        },
        {
            "bufferView" : 11,
            "componentType" : 5123,
            "count" : 1260,
            "type" : "SCALAR"
        },
        {
            "bufferView" : 12,
            "componentType" : 5126,
            "count" : 1349,
            "max" : [
                0.765873372554779,
                0.20169197022914886,
                0.43654772639274597
            ],
            "min" : [
                -0.43654775619506836,
                -0.3259916305541992,
                -0.7658731937408447
            ],
            "type" : "VEC3"
        },
        {
            "bufferView" : 13,
            "componentType" : 5126,
            "count" : 1349,
            "type" : "VEC3"
        },
        {
            "bufferView" : 14,
            "componentType" : 5126,
            "count" : 1349,
            "type" : "VEC2"
        },
        {
            "bufferView" : 15,
            "componentType" : 5126,
            "count" : 445,
            "max" : [
                0.5106166005134583,
                0.05521497130393982,
                0.5034405589103699
            ],
            "min" : [
                -0.5062239766120911,
                -0.046724408864974976,
                -0.5084190964698792
            ],
            "type" : "VEC3"
        },
        {
            "bufferView" : 16,
            "componentType" : 5126,
            "count" : 445,
            "type" : "VEC3"
        },
        {
            "bufferView" : 17,
            "componentType" : 5126,
            "count" : 445,
            "type" : "VEC2"
        },
        {
            "bufferView" : 18,
            "componentType" : 5123,
            "count" : 1260,
            "type" : "SCALAR"
        },
        {
            "bufferView" : 19,
            "componentType" : 5126,
            "count" : 1349,
            "max" : [
                0.43654781579971313,
                0.20169198513031006,
                0.7658732533454895
            ],
            "min" : [
                -0.7658730745315552,
                -0.3259916305541992,
                -0.43654778599739075
            ],
            "type" : "VEC3"
        },
        {
            "bufferView" : 20,
            "componentType" : 5126,
            "count" : 1349,
            "type" : "VEC3"
        },
        {
            "bufferView" : 21,
            "componentType" : 5126,
            "count" : 1349,
            "type" : "VEC2"
        },
        {
            "bufferView" : 22,
            "componentType" : 5126,
            "count" : 445,
            "max" : [
                0.5034406781196594,
                0.055214956402778625,
                0.506223738193512
            ],
            "min" : [
                -0.5084190964698792,
                -0.04672442376613617,
                -0.5106169581413269
            ],
            "type" : "VEC3"
        },
        {
            "bufferView" : 23,
            "componentType" : 5126,
            "count" : 445,
            "type" : "VEC3"
        },
        {
            "bufferView" : 24,
            "componentType" : 5126,
            "count" : 445,
            "type" : "VEC2"
        },
        {
            "bufferView" : 25,
            "componentType" : 5123,
            "count" : 1260,
            "type" : "SCALAR"
        },
        {
            "bufferView" : 26,
            "componentType" : 5126,
            "count" : 1349,
            "max" : [
                0.7658734321594238,
                0.20169197022914886,
                0.7658734321594238
            ],
            "min" : [
                -0.4365476965904236,
                -0.3259916603565216,
                -0.43654772639274597
            ],
            "type" : "VEC3"
        },
        {
            "bufferView" : 27,
            "componentType" : 5126,
            "count" : 1349,
            "type" : "VEC3"
        },
        {
            "bufferView" : 28,
            "componentType" : 5126,
            "count" : 1349,
            "type" : "VEC2"
        },
        {
            "bufferView" : 29,
            "componentType" : 5126,
            "count" : 559,
            "max" : [
                0.3579973578453064,
                0.35799741744995117,
                0.35799741744995117
            ],
            "min" : [
                -0.35799750685691833,
                -0.35799741744995117,
                -0.3579975664615631
            ],
            "type" : "VEC3"
        },
        {
            "bufferView" : 30,
            "componentType" : 5126,
            "count" : 559,
            "type" : "VEC3"
        },
        {
            "bufferView" : 31,
            "componentType" : 5126,
            "count" : 559,
            "type" : "VEC2"
        },
        {
            "bufferView" : 32,
            "componentType" : 5123,
            "count" : 2880,
            "type" : "SCALAR"
        },
        {
            "bufferView" : 33,
            "componentType" : 5126,
            "count" : 1107,
            "max" : [
                0.4743483066558838,
                0.42741379141807556,
                1.109900712966919
            ],
            "min" : [
                -0.4743483066558838,
                -0.16930779814720154,
                -0.4743483066558838
            ],
            "type" : "VEC3"
        },
        {
            "bufferView" : 34,
            "componentType" : 5126,
            "count" : 1107,
            "type" : "VEC3"
        },
        {
            "bufferView" : 35,
            "componentType" : 5126,
            "count" : 1107,
            "type" : "VEC2"
        },
        {
            "bufferView" : 36,
            "componentType" : 5123,
            "count" : 4026,
            "type" : "SCALAR"
        }
    ],
    "bufferViews" : [
        {
            "buffer" : 0,
            "byteLength" : 5340,
            "byteOffset" : 0
        },
        {
            "buffer" : 0,
            "byteLength" : 5340,
            "byteOffset" : 5340
        },
        {
            "buffer" : 0,
            "byteLength" : 3560,
            "byteOffset" : 10680
        },
        {
            "buffer" : 0,
            "byteLength" : 2520,
            "byteOffset" : 14240
        },
        {
            "buffer" : 0,
            "byteLength" : 16188,
            "byteOffset" : 16760
        },
        {
            "buffer" : 0,
            "byteLength" : 16188,
            "byteOffset" : 32948
        },
        {
            "buffer" : 0,
            "byteLength" : 10792,
            "byteOffset" : 49136
        },
        {
            "buffer" : 0,
            "byteLength" : 9696,
            "byteOffset" : 59928
        },
        {
            "buffer" : 0,
            "byteLength" : 5340,
            "byteOffset" : 69624
        },
        {
            "buffer" : 0,
            "byteLength" : 5340,
            "byteOffset" : 74964
        },
        {
            "buffer" : 0,
            "byteLength" : 3560,
            "byteOffset" : 80304
        },
        {
            "buffer" : 0,
            "byteLength" : 2520,
            "byteOffset" : 83864
        },
        {
            "buffer" : 0,
            "byteLength" : 16188,
            "byteOffset" : 86384
        },
        {
            "buffer" : 0,
            "byteLength" : 16188,
            "byteOffset" : 102572
        },
        {
            "buffer" : 0,
            "byteLength" : 10792,
            "byteOffset" : 118760
        },
        {
            "buffer" : 0,
            "byteLength" : 5340,
            "byteOffset" : 129552
        },
        {
            "buffer" : 0,
            "byteLength" : 5340,
            "byteOffset" : 134892
        },
        {
            "buffer" : 0,
            "byteLength" : 3560,
            "byteOffset" : 140232
        },
        {
            "buffer" : 0,
            "byteLength" : 2520,
            "byteOffset" : 143792
        },
        {
            "buffer" : 0,
            "byteLength" : 16188,
            "byteOffset" : 146312
        },
        {
            "buffer" : 0,
            "byteLength" : 16188,
            "byteOffset" : 162500
        },
        {
            "buffer" : 0,
            "byteLength" : 10792,
            "byteOffset" : 178688
        },
        {
            "buffer" : 0,
            "byteLength" : 5340,
            "byteOffset" : 189480
        },
        {
            "buffer" : 0,
            "byteLength" : 5340,
            "byteOffset" : 194820
        },
        {
            "buffer" : 0,
            "byteLength" : 3560,
            "byteOffset" : 200160
        },
        {
            "buffer" : 0,
            "byteLength" : 2520,
            "byteOffset" : 203720
        },
        {
            "buffer" : 0,
            "byteLength" : 16188,
            "byteOffset" : 206240
        },
        {
            "buffer" : 0,
            "byteLength" : 16188,
            "byteOffset" : 222428
        },
        {
            "buffer" : 0,
            "byteLength" : 10792,
            "byteOffset" : 238616
        },
        {
            "buffer" : 0,
            "byteLength" : 6708,
            "byteOffset" : 249408
        },
        {
            "buffer" : 0,
            "byteLength" : 6708,
            "byteOffset" : 256116
        },
        {
            "buffer" : 0,
            "byteLength" : 4472,
            "byteOffset" : 262824
        },
        {
            "buffer" : 0,
            "byteLength" : 5760,
            "byteOffset" : 267296
        },
        {
            "buffer" : 0,
            "byteLength" : 13284,
            "byteOffset" : 273056
        },
        {
            "buffer" : 0,
            "byteLength" : 13284,
            "byteOffset" : 286340
        },
        {
            "buffer" : 0,
            "byteLength" : 8856,
            "byteOffset" : 299624
        },
        {
            "buffer" : 0,
            "byteLength" : 8052,
            "byteOffset" : 308480
        }
    ],
    "buffers" : [
        {
            "byteLength" : 316532,
            "uri" : "data:application/octet-stream;base64,"
        }
    ]
}
